<?xml version="1.0" encoding="UTF-8" standalone="no"?>
<!-- Created with Inkscape (http://www.inkscape.org/) -->

<svg
   width="507.79361mm"
   height="244.44354mm"
   viewBox="0 0 507.79361 244.44354"
   version="1.1"
   id="svg5"
   inkscape:version="1.2 (dc2aedaf03, 2022-05-15)"
   sodipodi:docname="airport2.svg"
   xmlns:inkscape="http://www.inkscape.org/namespaces/inkscape"
   xmlns:sodipodi="http://sodipodi.sourceforge.net/DTD/sodipodi-0.dtd"
   xmlns="http://www.w3.org/2000/svg"
   xmlns:svg="http://www.w3.org/2000/svg">
  <sodipodi:namedview
     id="namedview7"
     pagecolor="#505050"
     bordercolor="#ffffff"
     borderopacity="1"
     inkscape:showpageshadow="0"
     inkscape:pageopacity="0"
     inkscape:pagecheckerboard="1"
     inkscape:deskcolor="#505050"
     inkscape:document-units="mm"
     showgrid="false"
     inkscape:zoom="0.81886515"
     inkscape:cx="1370.189"
     inkscape:cy="268.0539"
     inkscape:window-width="1920"
     inkscape:window-height="995"
     inkscape:window-x="0"
     inkscape:window-y="0"
     inkscape:window-maximized="1"
     inkscape:current-layer="layer1" />
  <defs
     id="defs2" />
  <g
     inkscape:label="Layer 1"
     inkscape:groupmode="layer"
     id="layer1"
     transform="translate(193.99891,-51.691411)">
    <rect
       style="opacity:1;fill:#cccccc;fill-opacity:1;stroke:#000000;stroke-width:0.499999"
       id="rect2113"
       width="661.19293"
       height="362.15036"
       x="-312.55188"
       y="-34.253052" />
    <rect
       style="opacity:1;fill:#999999;fill-opacity:1;stroke:#000000;stroke-width:0.499999"
       id="rect1473"
       width="183.9982"
       height="66.500252"
       x="-47.439171"
       y="51.94141" />
    <path
       style="fill:#666666;fill-opacity:1;stroke:#000000;stroke-width:0.499999"
       d="M -91.060369,163.21412 -193.4724,285.70589 -70.078462,288.06492 -4.5319783,170.77087 -93.465707,163.23189 Z"
       id="path1096" />
    <path
       style="fill:#000000;stroke:#000000;stroke-width:0.499999"
       d="m 29.770432,199.38268 v -2.69823 l 0.12297,-1.28267 121.080928,2.37946 v 2.57621 z"
       id="path478" />
    <path
       style="fill:#4d4d4d;fill-opacity:1;stroke:#000000;stroke-width:0.499999"
       d="m 33.178107,197.65165 4.138866,-8.38557 106.472157,1.66292 2.31987,11.79608 -112.4778,-1.5234 z"
       id="path750" />
    <path
       style="fill:#4d4d4d;stroke:#000000;stroke-width:0.499999"
       d="m 24.536547,207.48731 7.140208,-9.95416 116.948685,2.06357 5.91095,9.49833 z"
       id="path476" />
    <path
       style="fill:#4d4d4d;stroke:#000000;stroke-width:0.499999"
       d="M -13.483265,247.52814 9.5659008,221.61548 168.15902,220.86627 198.70688,247.90471 Z"
       id="path314" />
    <path
       style="fill:#4d4d4d;stroke:#000000;stroke-width:0.499999"
       d="m -65.072844,288.28603 15.189552,-9.43864 9.715098,-7.68168 16.259892,-17.54532 9.177057,-8.07345 215.820115,-0.0549 14.73592,11.09382 13.09583,3.8365 15.10405,5.67826 25.61257,10.27377 13.60255,8.91288 -1.4913,3.70306 -344.39697,2.3577 z"
       id="path312" />
    <path
       style="fill:#4d4d4d;stroke:#000000;stroke-width:0.499999"
       d="m 10.46996,221.88128 14.097663,-16.19286 129.721157,0.60499 12.78194,14.44737 z"
       id="path474" />
    <path
       style="fill:none;fill-opacity:1;stroke:#000000;stroke-width:0.499999"
       d="m 31.304817,196.27709 -7.346173,8.88619 -18.5634195,17.06449 -22.3121525,24.26684 -51.868681,39.63721 c -77.581141,38.07253 -9.017555,-47.41282 -0.174643,-50.65834 l 40.450642,-14.45232 13.825671,-7.54417 7.086544,-4.28666 6.3879756,-2.98853 6.1601005,-4.19234 7.0986849,-4.89745 6.357156,-5.86779 4.340835,-4.33616 7.153786,-7.34337 c 12.814206,-2.49015 9.168435,5.76648 1.403674,16.7124 z"
       id="path938"
       sodipodi:nodetypes="cccccccccccccccc" />
    <path
       style="fill:none;fill-opacity:1;stroke:#000000;stroke-width:0.499999"
       d="m 264.71041,214.08624 36.11224,6.688 12.71161,18.26542 -1.99919,15.25794 -9.38715,23.14874 -13.26571,3.61193"
       id="path1036" />
    <path
       style="fill:none;fill-opacity:1;stroke:#000000;stroke-width:0.499999"
       d="m 288.66163,282.16643 c -25.11756,-7.97333 -53.2035,-19.79478 -53.2035,-19.79478 l -27.72813,-10.537 -27.10545,-19.17208 -28.10244,-27.78111 -5.12825,-6.95201"
       id="path1038" />
    <path
       style="fill:none;fill-opacity:1;stroke:#000000;stroke-width:0.499999"
       d="m 265.03521,213.81702 -43.57315,-8.90951 -23.8027,-7.5113 -17.53852,-8.3094 -16.25754,-5.61025 -14.04644,-3.39914 -4.20941,0.45681 -0.18325,3.29493"
       id="path1040" />
    <path
       style="fill:#666666;fill-opacity:1;stroke:#000000;stroke-width:0.499999"
       d="m 29.755266,195.06032 14.110338,-20.59092 102.152206,1.42744 5.01161,21.7729 z"
       id="path804" />
    <path
       style="fill:#666666;fill-opacity:1;stroke:#000000;stroke-width:0.499999"
       d="m 145.73772,176.32802 -10.14249,-56.84176 -182.256299,-1.8469 -44.365637,46.71384 133.55727,9.00704 z"
       id="path1042" />
    <path
       style="opacity:1;fill:#000080;fill-opacity:1;stroke:#000000;stroke-width:0.499999"
       d="M -4.4176714,170.05809 34.262803,118.69299 34.407297,97.124397 -9.8331024,136.21096 Z"
       id="path1100" />
    <path
       style="opacity:1;fill:#000080;fill-opacity:1;stroke:#000000;stroke-width:0.499999"
       d="M 34.353198,96.991547 48.460162,144.75869 45.640826,173.01507 34.809964,118.13008 Z"
       id="path1102" />
    <path
       style="opacity:1;fill:#b3b3b3;fill-opacity:1;stroke:#000000;stroke-width:0.499999"
       d="m 34.075174,96.914553 -0.224586,-33.365458 43.42317,-0.634484 -0.871795,55.440749 7.344971,0.17425 -0.447513,-55.714569 50.494869,-0.615678 -0.46355,56.679847 -79.252442,-0.22403 -13.505606,-0.9437 z"
       id="path1167" />
    <text
       xml:space="preserve"
       style="font-size:7.60363px;font-family:'DejaVu Sans';-inkscape-font-specification:'DejaVu Sans';text-align:center;text-anchor:middle;opacity:1;fill:#999999;fill-opacity:1;stroke:#000000;stroke-width:0.359227"
       x="81.945419"
       y="59.51453"
       id="text1529"><tspan
         sodipodi:role="line"
         id="tspan1527"
         style="stroke-width:0.359228"
         x="81.945419"
         y="59.51453">front door / back door</tspan></text>
    <path
       style="opacity:1;fill:#808080;fill-opacity:1;stroke:#000000;stroke-width:0.499999"
       d="m 39.927688,113.81818 6.611422,-8.47085 2.570654,-3.49804 2.250681,-2.454448 2.212329,-2.681446 0.515218,-2.29213 v -1.448028 l -0.641503,-29.743069 -19.580143,0.36685 0.311065,33.181845 z"
       id="path1581" />
    <path
       style="opacity:1;fill:#999999;fill-opacity:1;stroke:#000000;stroke-width:0.499999"
       d="M 76.320141,93.292826 73.43958,90.112433 70.239042,88.057767 65.817871,86.289376 59.888238,84.878925 54.203044,84.137864 H 53.833095 L 53.418985,63.260385 77.338176,62.90012 Z"
       id="path1709" />
    <path
       style="opacity:1;fill:none;fill-opacity:1;stroke:#000000;stroke-width:0.499999"
       d="m 66.23663,111.8375 3.131195,-8.69746 -12.74133,-0.67676 4.770977,-5.042915 -4.880218,5.183925 2.777905,4.02256"
       id="path1711" />
    <path
       style="opacity:1;fill:#999999;fill-opacity:1;stroke:#000000;stroke-width:0.499999"
       d="m 83.820994,118.26495 6.214348,-9.49072 2.994149,-5.28075 2.189432,-3.07478 2.063848,-1.99445 3.649819,-3.510359 2.89402,-2.027828 1.38207,-1.429657 2.15737,-1.324232 1.82524,-1.367859 2.37417,-1.771703 0.24588,-0.718465 -0.23762,-23.584712 -28.228286,0.271984 z"
       id="path1920" />
    <path
       style="opacity:1;fill:#999999;fill-opacity:1;stroke:#000000;stroke-width:0.499999"
       d="m 133.08765,87.845251 -4.76255,-2.266762 -8.59182,-1.545326 -2.00337,-0.589576 -0.43062,-20.804055 16.83598,-0.593873 z"
       id="path1922" />
    <path
       style="opacity:1;fill:#999999;fill-opacity:1;stroke:#000000;stroke-width:0.499999"
       d="m 111.62429,82.841781 5.92253,-3.129647 -0.36518,-17.213718 -5.63171,-0.112363 z"
       id="path1924" />
    <path
       style="opacity:1;fill:none;fill-opacity:1;stroke:#000000;stroke-width:0.499999"
       d="m 120.23891,111.9736 3.9261,-11.72576 -13.48028,-1.714531 4.69579,-4.351102 -4.74305,4.238077 1.38174,4.618126"
       id="path1926" />
    <path
       style="opacity:1;fill:none;fill-opacity:1;stroke:#000000;stroke-width:0.499999"
       d="m 114.57151,85.289979 -2.23702,-1.570442 1.41478,-1.105456 h -0.81992 l 0.7611,-0.07304 v 0.836116"
       id="path1928" />
    <path
       id="path2042"
       style="opacity:1;fill:#502d16;stroke:#000000;stroke-width:0.499999"
       inkscape:transform-center-x="6.774822"
       inkscape:transform-center-y="-2.22107"
       transform="translate(6.630655,4.6333539)"
       d="m 88.068065,148.26801 0.417861,16.25921 c -11.318212,-20.01793 -12.669717,-17.14738 -26.158183,-2.16615 10.028729,-24.38619 -23.98592,-19.32024 4.169744,-29.04809 3.729949,-25.73192 62.744363,0.72942 21.570578,14.95503 z"
       sodipodi:nodetypes="ccccc" />
  </g>
</svg>
