<?xml version="1.0" encoding="UTF-8" standalone="no"?>
<!-- Created with Inkscape (http://www.inkscape.org/) -->

<svg
   width="401.62262mm"
   height="141.97568mm"
   viewBox="0 0 401.62262 141.97568"
   version="1.1"
   id="svg5"
   inkscape:version="1.2 (dc2aedaf03, 2022-05-15)"
   sodipodi:docname="exit.svg"
   xmlns:inkscape="http://www.inkscape.org/namespaces/inkscape"
   xmlns:sodipodi="http://sodipodi.sourceforge.net/DTD/sodipodi-0.dtd"
   xmlns="http://www.w3.org/2000/svg"
   xmlns:svg="http://www.w3.org/2000/svg"
   xmlns:rdf="http://www.w3.org/1999/02/22-rdf-syntax-ns#"
   xmlns:cc="http://creativecommons.org/ns#">
  <sodipodi:namedview
     id="namedview7"
     pagecolor="#505050"
     bordercolor="#ffffff"
     borderopacity="1"
     inkscape:showpageshadow="0"
     inkscape:pageopacity="0"
     inkscape:pagecheckerboard="1"
     inkscape:deskcolor="#505050"
     inkscape:document-units="mm"
     showgrid="false"
     inkscape:zoom="0.55579758"
     inkscape:cx="807.84807"
     inkscape:cy="180.82123"
     inkscape:window-width="1920"
     inkscape:window-height="995"
     inkscape:window-x="0"
     inkscape:window-y="0"
     inkscape:window-maximized="1"
     inkscape:current-layer="layer1" />
  <defs
     id="defs2" />
  <g
     inkscape:label="Layer 1"
     inkscape:groupmode="layer"
     id="layer1"
     transform="translate(123.09706,-59.601357)">
    <path
       id="rect1465"
       style="stroke-width:0.264583"
       d="M -63.261729,98.543764 29.056437,78.808749 C 189.47578,95.662768 263.83782,168.40178 278.52556,200.80281 l -401.62262,0.58548 C 26.647994,166.78331 52.249988,121.74946 -63.261729,98.543764 Z"
       sodipodi:nodetypes="ccccc" />
    <path
       id="rect1720"
       style="fill:#ffff00;stroke-width:0.264583"
       d="m -52.210119,96.000992 4.853811,-0.647278 C 88.215882,123.64314 34.017017,162.656 -76.01881,201.02525 l -6.557742,-0.009 C -2.8017124,167.6435 104.90669,131.15497 -52.210119,96.000992 Z"
       sodipodi:nodetypes="ccccc" />
    <path
       id="rect1778"
       style="fill:#ffffff;stroke-width:0.196631"
       d="m 21.092905,80.415356 3.233299,-0.553044 C 194.04102,103.18048 225.8085,154.19464 275.70472,201.56904 l -8.34046,0.008 C 214.95745,138.58362 139.54087,95.213198 21.092905,80.415356 Z"
       sodipodi:nodetypes="ccccc" />
    <path
       id="rect1781"
       style="fill:#ffffff;stroke-width:0.264583"
       d="m 116.58566,152.70499 7.66691,-0.008 c 5.89375,8.73556 13.05344,29.05015 8.83171,48.30791 h -5.43002 c 1.84748,-12.8686 7.19612,-23.69389 -11.0686,-48.30019 z"
       sodipodi:nodetypes="ccccc" />
    <path
       id="rect1784"
       style="fill:#ffffff;stroke-width:0.247061"
       d="m 78.293367,110.0393 4.101233,-0.11709 c 17.96605,7.2833 30.14762,17.14564 36.5082,29.6033 h -4.39747 C 109.90597,126.98249 95.464289,118.01514 78.293367,110.0393 Z"
       sodipodi:nodetypes="ccccc" />
    <path
       id="rect1841"
       style="fill:#ffffff;stroke-width:0.264583"
       d="m 8.4304978,83.270445 2.2043642,-0.312351 63.025314,22.143116 -4.329148,0.41084 z"
       sodipodi:nodetypes="ccccc" />
    <path
       id="rect1841-3"
       style="fill:#ffffff;stroke-width:0.264583"
       d="m -14.187112,87.421034 2.204364,-0.312351 63.025314,22.143117 -4.329148,0.41084 z"
       sodipodi:nodetypes="ccccc" />
    <path
       id="path3078"
       style="fill:#ffffff;stroke-width:0.0875122"
       inkscape:transform-center-x="-0.98461026"
       inkscape:transform-center-y="0.82817022"
       d="M 9.0896635,87.299551 24.903131,94.055861 21.332274,96.007723 7.1130557,89.759339 4.6790783,93.344964 4.5091725,83.882769 13.003632,84.993226 Z"
       sodipodi:nodetypes="cccccccc" />
    <path
       id="path3078-6"
       style="fill:#ffffff;stroke-width:0.0875122"
       inkscape:transform-center-x="-0.98461026"
       inkscape:transform-center-y="0.82817022"
       d="m -17.503615,93.156675 15.813467,6.75631 -3.570857,1.951865 -14.219218,-6.248386 -2.433978,3.585625 -0.169905,-9.462196 8.494459,1.110458 z"
       sodipodi:nodetypes="cccccccc" />
    <path
       style="fill:#ff6600;stroke-width:0.264583"
       id="path3727"
       d="m 156.40199,193.41971 c -0.85156,-3.68605 -2.10126,-7.24943 -3.42014,-10.78896 -1.33311,-3.53952 -2.83529,-7.01321 -4.44352,-10.43571 -0.7399,-1.58043 -1.52948,-3.14573 -2.04421,-4.81744 -0.0685,-0.30887 -0.18114,-0.70519 -0.16134,-1.03082 0.0747,-1.22876 1.35364,-2.06585 2.1747,-2.78078 3.57517,-2.82467 7.63544,-4.92213 11.76886,-6.79322 3.37318,-1.4826 6.88416,-2.60023 10.44485,-3.52856 2.79629,-0.72771 5.6279,-1.3067 8.45388,-1.90448 1.77478,-0.3614 3.54888,-0.73828 5.34275,-0.99345 0.49186,-0.14437 1.19784,-0.0282 1.68328,-0.16797 0.0508,-0.0147 0.17549,-0.0533 0.13363,-0.0857 -1.08422,-0.83824 -2.22798,-1.59652 -3.34197,-2.39477 -1.62563,-0.27768 -3.17441,-0.8768 -4.71273,-1.45218 -2.5146,-0.96319 -5.05919,-1.84343 -7.61577,-2.68772 -2.07778,-0.72293 -4.18262,-1.34803 -6.32201,-1.85853 -1.50796,-0.35995 -3.05228,-0.47231 -4.59732,-0.49894 -0.98808,0.0317 -1.99878,-0.0187 -2.96305,0.234 -0.18674,0.0921 -0.25036,0.0879 -0.35654,0.27923 -0.12676,0.22844 -0.1348,0.55125 0.12466,0.70861 1.2216,0.7409 2.48587,1.40905 3.72881,2.11357 1.35351,0.42864 2.76454,0.63845 4.15927,0.88588 1.92054,0.30503 3.84935,0.554 5.7691,0.86437 1.49171,0.27603 2.99479,0.47849 4.49329,0.71198 1.35791,0.20145 2.71565,0.40341 4.07263,0.61127 1.20237,0.19765 2.39675,0.44033 3.59977,0.63408 0.90157,0.1294 1.80268,0.26401 2.70644,0.37753 0.49811,0.057 0.99468,0.13411 1.45633,0.33685 1.17581,0.76534 0.23156,0.14774 -3.19507,-1.82627 -0.027,-0.0156 0.0567,0.0263 0.0835,0.0422 0.10522,0.0625 0.12312,0.13646 0.15262,0.25036 -0.0182,0.59972 -0.22086,1.18639 -0.38799,1.75874 -0.31148,1.01093 -0.56107,2.04019 -0.78782,3.07306 -0.34864,1.4472 -0.48793,2.9299 -0.69249,4.40116 -0.19767,1.44103 -0.3517,2.88723 -0.58633,4.32311 -0.21113,1.12695 -0.45069,2.24753 -0.6113,3.38325 -0.0703,0.51478 -0.11232,1.03257 -0.1394,1.55121 0,0 3.52096,1.80728 3.52096,1.80728 v 0 c 0.004,-0.51409 0.0243,-1.02812 0.0785,-1.53965 0.1305,-1.14094 0.35853,-2.26439 0.56737,-3.39294 0.22377,-1.44151 0.39472,-2.88964 0.57974,-4.33639 0.19512,-1.45982 0.33978,-2.92894 0.69442,-4.36166 0.2393,-1.01817 0.50143,-2.03157 0.81666,-3.02918 0.18386,-0.61591 0.3938,-1.22835 0.50046,-1.86369 0.057,-1.69354 -2.18149,-2.23174 -3.7229,-2.67843 -0.48524,-0.12779 -0.98053,-0.1971 -1.47928,-0.2489 -0.88993,-0.10839 -1.77859,-0.22991 -2.66475,-0.3655 -1.19668,-0.19934 -2.38741,-0.43352 -3.58653,-0.61838 -1.3557,-0.20348 -2.71188,-0.4034 -4.06734,-0.60839 -1.48868,-0.22637 -2.9805,-0.43129 -4.46405,-0.69091 -1.92125,-0.28783 -3.84901,-0.53514 -5.76273,-0.87102 -1.40582,-0.25763 -2.84452,-0.47468 -4.17193,-1.02481 1.00399,0.59151 2.02466,1.15558 3.01198,1.77453 0.0537,0.0336 -0.51383,-0.0603 -0.35479,-0.1325 0.0518,-0.0235 0.10736,-0.0377 0.16103,-0.0566 0.92979,-0.20266 1.88882,-0.18762 2.83554,-0.20022 1.51925,0.0435 3.03529,0.18042 4.51628,0.54014 2.1129,0.50772 4.1905,1.13498 6.24625,1.83985 2.56677,0.84207 5.11584,1.7372 7.63262,2.71967 0.97489,0.36347 1.94665,0.72285 2.94421,1.02029 0.48389,0.14428 0.97714,0.25686 1.45824,0.41024 0.14893,0.0475 0.29249,0.11039 0.43874,0.16559 -3.39982,-2.50375 -2.06189,-2.45322 -4.75029,-2.05418 -1.76573,0.30242 -3.51376,0.70123 -5.26537,1.0748 -2.80329,0.62573 -5.61291,1.22738 -8.3882,1.971 -3.54718,0.96878 -7.06341,2.07894 -10.40518,3.63063 -4.14389,1.95504 -8.1974,4.13096 -11.92953,6.80323 -0.98001,0.78244 -2.34425,1.61765 -2.51388,3.00072 -0.0439,0.35793 0.072,0.77739 0.14166,1.11953 0.50707,1.72629 1.36493,3.31843 2.1473,4.93148 1.70017,3.42829 3.3016,6.90982 4.65125,10.49274 1.26511,3.46195 2.47824,6.95977 3.13751,10.59689 0,0 3.47666,1.67973 3.47666,1.67973 z" />
    <path
       style="fill:#ff6600;stroke-width:0.264583"
       id="path5181"
       d="m 111.83398,120.19392 c -0.84534,-1.24196 -2.05071,-2.18854 -3.19003,-3.14755 -1.2652,-1.03815 -2.52944,-2.07828 -3.74181,-3.17811 -0.73848,-0.66106 -1.42082,-1.37504 -2.05946,-2.13171 -0.40849,-0.52499 -0.89862,-0.99486 -1.24334,-1.56684 -0.20373,-0.40735 -0.0225,-0.75477 0.16716,-1.12551 0.28727,-0.48214 0.60638,-0.94045 0.86185,-1.44135 0.29916,-0.67965 0.66693,-1.32658 1.02387,-1.97697 0.29618,-0.50718 0.56574,-1.02912 0.75993,-1.58403 0.54581,-1.82673 -1.61957,-1.73918 -3.49489,-2.81183 -0.74016,0.12024 -1.450443,0.3872 -2.161085,0.62024 -1.120727,0.43929 -2.252879,0.81782 -3.435961,1.0453 -0.818698,0.14838 -1.650397,0.15685 -2.478691,0.18775 -1.714733,0.0772 -0.756698,-0.0406 2.972343,2.35743 0.06682,0.043 0.158853,-0.004 0.238291,-0.005 0.109519,-0.002 0.219054,-0.003 0.328578,-0.005 1.188935,-0.007 2.377424,-0.0411 3.564504,-0.10762 1.349411,-0.067 2.687101,-0.25315 4.026681,-0.41758 0.97284,-0.10816 1.94519,-0.22571 2.91449,-0.36262 0.30573,0.0247 0.82655,-0.25782 1.10116,-0.10613 -1.1256,-0.61654 -2.25722,-1.22221 -3.37681,-1.84959 -0.0321,-0.018 0.0816,-0.006 0.109,0.0184 0.0401,0.0359 0.0562,0.0929 0.0724,0.14416 0.0877,0.27651 0.0994,0.59392 0.13664,0.87949 0.0782,0.77626 0.14582,1.55363 0.22568,2.32982 0.0662,0.5776 0.10808,1.15722 0.12351,1.73832 0.006,0.26627 0.007,0.53264 0.004,0.79895 0,0 3.54708,1.80776 3.54708,1.80776 v 0 c -0.002,-0.27463 -0.005,-0.54931 -0.0182,-0.82368 -0.0297,-0.59317 -0.0616,-1.18669 -0.13738,-1.77615 -0.0892,-0.77526 -0.16956,-1.55158 -0.2178,-2.33056 -0.26768,-2.4562 0.31627,-1.1979 -3.66906,-3.3033 -0.3692,0.081 -0.74096,0.15049 -1.11443,0.2087 -0.95256,0.14771 -1.90849,0.27259 -2.86555,0.38726 -1.329725,0.17438 -2.661307,0.33893 -4.002213,0.39918 -1.201147,0.055 -2.403472,0.0839 -3.605823,0.0503 -0.113663,-0.003 -0.227365,-0.005 -0.34099,-0.009 -0.08233,-0.003 -0.310663,-0.0647 -0.246825,-0.0126 2.874614,2.34477 1.849917,2.41183 3.434779,2.29392 0.826889,-0.047 1.655326,-0.10485 2.468533,-0.27133 1.184627,-0.2671 2.321239,-0.67594 3.467529,-1.07182 0.61919,-0.19097 1.41978,-0.5514 2.06626,-0.37431 -1.08572,-0.64245 -2.1842,-1.26381 -3.25716,-1.92734 -0.0528,-0.0327 0.15501,-0.0263 0.18405,0.0286 0.0539,0.10194 -0.035,0.26187 -0.0376,0.36256 -0.15293,0.54315 -0.40728,1.04751 -0.68269,1.53831 -0.361985,0.65287 -0.73627,1.30081 -1.057821,1.97469 -0.248872,0.50164 -0.568187,0.95831 -0.857004,1.43705 -0.243721,0.45688 -0.483401,0.91193 -0.337582,1.44311 0.235749,0.66664 0.82358,1.12542 1.239952,1.68021 0.646647,0.77565 1.309935,1.5316 2.075585,2.19509 1.22354,1.1173 2.50568,2.168 3.78948,3.21489 1.09727,0.91158 2.25967,1.81181 3.10582,2.97172 0,0 3.62097,1.60409 3.62097,1.60409 z" />
    <path
       style="fill:#ff6600;stroke-width:0.264583"
       id="path5183"
       d="m 48.794886,92.967782 c -0.9883,-0.599993 -1.953863,-1.235593 -2.908689,-1.88718 -0.903234,-0.647912 -1.84391,-1.239679 -2.774661,-1.846339 -0.289491,-0.266954 -0.803296,-0.475906 -0.969248,-0.862465 -0.0063,-0.226809 0.24181,-0.24524 0.396351,-0.332983 0.548,-0.331431 1.179192,-0.491199 1.79206,-0.657792 0.511783,-0.139671 1.04385,-0.19151 1.547733,-0.358293 1.799092,-0.938284 -2.046161,-2.244987 -3.378351,-2.630017 -1.349528,-0.410739 -2.740072,-0.657825 -4.128653,-0.89259 -1.587567,-0.26343 -3.192418,-0.376306 -4.798981,-0.427971 -0.387911,0.02774 -1.434841,-0.160055 -1.56173,0.438364 -0.02201,0.103828 0.0028,0.212251 0.0043,0.318378 1.244248,0.693881 2.45605,1.449438 3.732739,2.081644 0.175324,0.08682 0.389509,0.0372 0.584235,0.05609 0.254825,0.02471 0.509262,0.05372 0.764415,0.07474 0.967087,0.07971 1.937173,0.125455 2.906128,0.174818 1.436187,0.06615 2.873605,0.09611 4.311041,0.117414 0.506542,0.0078 1.013085,0.0149 1.519682,0.0173 0.223743,-2.41e-4 0.447469,5.29e-4 0.671201,0.0028 1.129008,0.781616 2.261891,1.33074 -3.088955,-1.743739 -0.03737,-0.02148 0.08011,0.03545 0.112262,0.06415 0.04727,0.04221 0.08163,0.09695 0.122444,0.145423 0.244811,0.386167 0.41124,0.81308 0.511816,1.257488 0.07534,0.452199 0.113686,0.909886 0.139009,1.367345 0.0026,0.05121 0.0052,0.10242 0.0078,0.153633 0,0 3.545681,1.784514 3.545681,1.784514 v 0 c -0.0026,-0.05356 -0.0052,-0.107114 -0.0078,-0.160671 -0.03563,-0.472554 -0.08496,-0.943655 -0.128772,-1.415476 -0.07503,-0.488135 -0.224481,-0.944454 -0.443413,-1.388361 -0.665588,-1.440659 -2.421194,-2.432629 -3.994079,-2.406145 -0.220408,0.0028 -0.440817,0.0043 -0.661233,0.0059 -0.487619,0.0064 -0.975191,0.01656 -1.462855,0.01905 -1.40898,0.0041 -2.818296,-0.01161 -4.225967,-0.07696 -0.975574,-0.05103 -1.949873,-0.103486 -2.92072,-0.217077 -1.914072,-0.223954 -3.129163,-1.074354 1.663224,1.630376 -0.06512,0.02991 -0.129463,0.06155 -0.19535,0.08972 -0.0084,0.0036 -0.03521,0.0088 -0.02681,0.0053 0.38676,-0.162441 0.844505,-0.08567 1.248097,-0.110442 1.582653,0.04251 3.163306,0.173252 4.724776,0.441994 1.417772,0.258014 2.82911,0.551651 4.203721,0.990762 1.599666,0.387278 -0.177308,-0.0087 -2.932493,-1.918616 -0.137824,-0.09554 0.323839,-0.242086 0.03667,-0.128471 -0.04203,0.01662 -0.0855,0.02937 -0.128249,0.04405 -0.50093,0.136538 -1.013992,0.226504 -1.512943,0.371586 -0.639718,0.183496 -1.2788,0.380677 -1.863992,0.704895 -0.319823,0.146124 -0.559837,0.35819 -0.633995,0.717539 -0.01349,0.119468 -0.04117,0.240605 0.0027,0.359728 0.140002,0.380341 0.604266,0.609743 0.875766,0.869915 0.93146,0.625864 1.903844,1.190692 2.810566,1.854066 0.930769,0.638087 1.864471,1.272002 2.82304,1.867995 0,0 3.690535,1.434621 3.690535,1.434621 z" />
    <path
       style="fill:#ff6600;stroke-width:0.264583"
       id="path5222"
       d="M -0.60377596,96.154374 C -1.5796743,96.146198 -2.5434886,95.94217 -3.5015381,95.77476 -4.3773044,95.618108 -5.2476,95.430402 -6.1244405,95.279696 c -0.2496767,-0.04291 -0.5002628,-0.08036 -0.7503941,-0.120537 -0.2777857,-0.04852 -0.5555712,-0.09704 -0.833357,-0.145563 -1.6935707,-0.294859 -3.3355554,-0.802613 -4.9616824,-1.348898 -0.478295,-0.165855 -0.954764,-0.336868 -1.430959,-0.50863 -0.130296,-0.047 -0.375591,-0.141486 -0.521846,-0.17435 -0.06117,-0.01373 -0.124291,-0.01648 -0.186437,-0.02474 -0.06599,0.01826 -0.135995,0.02564 -0.197964,0.05476 -0.102466,0.04814 -0.193312,0.117906 -0.291083,0.174979 -0.14059,0.08207 -0.280383,0.16569 -0.423958,0.242419 -0.582206,0.311137 -1.182403,0.590368 -1.781094,0.867691 -0.909517,0.400304 -1.828253,0.778713 -2.740359,1.173059 -0.453646,0.207978 -0.896659,0.436192 -1.330012,0.683414 -0.298357,0.175286 -0.596756,0.351366 -0.900583,0.517122 -0.157017,0.07737 -0.307658,0.172268 -0.483805,0.195858 -0.01289,2.65e-4 -0.02577,5.29e-4 -0.03865,7.94e-4 -0.03318,0.0011 -0.08281,0.01201 -0.104792,-0.02342 -0.01224,-0.01974 -0.04313,-0.07699 -0.02278,-0.06582 1.111706,0.610651 2.208249,1.248508 3.312373,1.872761 -0.05455,-0.03399 -0.119496,-0.05525 -0.163647,-0.101955 -0.133822,-0.141557 -0.296625,-0.484568 -0.364652,-0.639887 -0.235965,-0.53875 -0.387067,-1.104304 -0.548497,-1.668174 -0.265648,-0.984956 -0.435792,-1.99136 -0.575706,-3.000698 -0.0062,-0.04816 -0.04824,-0.355536 -0.05118,-0.435059 -0.0012,-0.03218 0.0052,-0.06419 0.0078,-0.09629 -1.177574,-0.573926 -2.310804,-1.249561 -3.532722,-1.721776 -0.115886,-0.04479 0.01918,0.247925 0.03708,0.370869 0.0238,0.163444 0.05861,0.325091 0.08791,0.487638 0.245873,1.241247 0.406268,2.49773 0.523894,3.757059 0.0658,0.598316 0.126212,1.19693 0.154726,1.798249 0.0072,0.238617 0.01013,0.477409 0.02319,0.715803 0.02686,0.02003 -0.0012,0.354391 0.004,0.357797 3.34266,2.169269 2.118912,2.380469 3.668925,2.033249 0.711604,-0.0745 0.284176,-0.036 1.156468,-0.0934 0.963174,-0.0634 1.005124,-0.0791 2.020138,-0.0955 1.042234,-0.0168 1.293093,5.3e-4 2.340007,0.0275 1.566595,0.069 3.125027,0.25284 4.669023,0.52248 0,0 -2.987495,-2.219479 -2.987495,-2.219479 v 0 c -1.395096,-0.03044 -2.788758,-0.106831 -4.184042,-0.131122 -2.031188,-0.05336 -0.356353,-0.01479 -2.38254,-0.04637 -0.99985,-0.01558 -1.264778,-0.01429 -2.244669,-0.07524 -0.273728,-0.01704 -0.547796,-0.03303 -0.82023,-0.0646 -0.202062,-0.02342 -0.401308,-0.06679 -0.601962,-0.100177 -1.453589,-0.725535 0.05473,0.01704 2.975407,1.862368 0.01816,0.0115 -0.04479,0.0269 -0.06268,0.015 -0.01843,-0.0123 -0.02959,-0.21634 -0.03824,-0.243325 -0.03288,-0.249893 -0.0421,-0.502232 -0.08212,-0.751321 -0.102719,-0.643602 -0.248398,-1.279612 -0.367813,-1.920177 -0.162656,-0.821065 -0.312489,-1.64334 -0.408964,-2.475261 -0.02545,-0.21944 -0.0524,-0.438912 -0.06697,-0.659342 -0.01268,-0.191794 -0.0098,-0.384297 -0.01471,-0.576448 0.0074,-0.135353 0.0097,-0.271081 0.02222,-0.406058 0.0053,-0.05703 0.08065,-0.140148 0.03116,-0.168982 -1.135771,-0.661762 -2.323898,-1.229272 -3.485847,-1.843907 0.0269,0.02662 0.06157,0.04722 0.08071,0.07987 0.05453,0.09303 0.144919,0.393597 0.170405,0.471715 0.286643,1.025263 0.518831,2.064676 0.752129,3.103115 0.124581,0.545436 0.250525,1.091142 0.383173,1.63466 0.321544,1.317519 -0.08168,-0.369626 0.177355,0.649388 0.01746,0.06871 0.02936,0.13871 0.04404,0.208068 0.214799,0.12274 2.502374,2.570562 3.790471,1.869175 0.160308,-0.09184 0.313413,-0.195797 0.470453,-0.293005 0.284296,-0.183305 0.566645,-0.369929 0.857592,-0.542607 0.407259,-0.246446 0.821706,-0.480975 1.238389,-0.711068 0.819253,-0.464357 1.64802,-0.913183 2.497235,-1.320673 0.642779,-0.291777 0.63632,-0.299807 1.297734,-0.555781 0.459578,-0.177861 0.952343,-0.392139 1.455549,-0.39471 0.04926,-2.52e-4 0.09667,0.01902 0.144997,0.02855 0.604189,0.148169 1.198018,0.335235 1.7965773,0.503981 1.6095573,0.463875 3.2242609,0.918617 4.8715858,1.230582 1.4405509,0.296135 2.8799435,0.599507 4.32943475,0.849614 1.08891206,0.202277 2.18217975,0.385305 3.26237885,0.631262 0,0 -3.14945786,-2.351865 -3.14945786,-2.351865 z" />
    <path
       style="fill:#ff6600;stroke-width:0.264583"
       id="path6835"
       d="m 76.634543,192.28041 c 0.08183,-2.71032 0.670666,-5.38116 1.170453,-8.03758 1.036121,-5.48389 2.385753,-10.90115 3.633203,-16.33912 1.318365,-5.89747 2.821188,-11.75098 4.192801,-17.63586 0.888733,-3.86534 1.640692,-7.76028 2.237597,-11.68104 0.166722,-1.15128 0.313683,-2.30619 0.388322,-3.46744 0.04323,-1.04656 0.108468,-0.3428 -3.492268,-1.77933 -0.114472,-0.0457 0.09804,0.22617 0.147839,0.3389 0.339831,0.76922 0.219707,0.49959 0.634161,1.3699 1.097,2.38498 2.458958,4.62619 3.852873,6.84533 1.411187,2.23857 2.964056,4.38217 4.452604,6.56883 0.63813,0.95647 1.264344,1.92438 1.791923,2.94721 0.222808,-1.31469 -0.07031,0.24075 3.4096,1.39656 0.193966,0.0644 -0.258672,-0.31688 -0.37752,-0.48316 -0.170286,-0.23825 -0.334476,-0.4811 -0.489326,-0.72966 -0.192892,-0.30963 -0.378031,-0.62427 -0.553429,-0.94413 -0.200903,-0.36637 -0.383381,-0.74256 -0.575072,-1.11383 -1.171771,-2.47143 -2.082998,-5.05474 -3.026815,-7.61879 -0.529603,-1.39792 -1.000746,-2.82295 -1.646142,-4.17359 -0.153352,-0.23624 -0.316092,-0.65947 -0.57899,-0.80835 -3.569433,-2.02142 -2.226112,-2.0276 -3.845587,-1.96568 -1.266139,0.11969 -2.445485,0.65395 -3.599145,1.15301 -2.092518,0.96048 -4.172453,1.94739 -6.243214,2.95376 -1.575189,0.75601 -3.14085,1.53142 -4.706303,2.30729 -0.714277,0.38193 -1.486357,0.65065 -2.193321,1.0467 -0.461746,0.25867 -0.603698,0.38147 -1.041726,0.69788 -0.189968,0.15264 -0.379934,0.30527 -0.569902,0.4579 0,0 3.186465,2.00936 3.186465,2.00936 v 0 c 0.192862,-0.14269 0.385725,-0.28538 0.578588,-0.42808 0.179901,-0.11771 0.356378,-0.24082 0.539705,-0.35312 0.848018,-0.51948 1.780849,-0.88278 2.651461,-1.36039 1.530781,-0.79954 3.057694,-1.60678 4.609721,-2.36482 2.056112,-1.02367 4.106879,-2.06618 6.240169,-2.92281 1.176036,-0.43791 2.416307,-0.937 3.695192,-0.85857 1.425575,0.38929 0.15421,0.0628 -2.976422,-1.79347 -0.05436,-0.0322 0.122962,0.0332 0.179051,0.0623 0.243753,0.12652 0.396388,0.36844 0.549482,0.58432 0.793861,1.33615 1.321998,2.8087 1.91109,4.24119 0.990672,2.55324 1.908765,5.13634 3.005291,7.64708 0.173136,0.36898 0.339985,0.74098 0.519409,1.10694 0.331303,0.67576 0.521616,1.01656 0.882801,1.64359 0.09049,0.1571 0.121039,0.37558 0.276953,0.4681 3.739131,2.21868 3.523522,3.28032 3.756951,1.74164 -0.612529,-1.06779 -1.318253,-2.07934 -2.01743,-3.09121 -1.54672,-2.18165 -3.132008,-4.33794 -4.562557,-6.59924 -1.366057,-2.16288 -2.703957,-4.35097 -3.693612,-6.71805 -0.212672,-0.50616 -0.342271,-0.77866 -0.504042,-1.2756 -0.0336,-0.10323 0.0088,-0.25813 -0.08388,-0.31469 -1.128077,-0.68858 -3.758022,-2.98227 -3.595727,-1.67064 0.09826,1.19403 0.02638,2.39455 -0.05038,3.5876 -0.346683,3.99092 -0.986054,7.94888 -1.813036,11.86812 -1.267703,5.91678 -2.738519,11.78627 -4.101343,17.68151 -1.294104,5.40172 -2.678779,10.78148 -3.910486,16.19816 -0.606719,2.59118 -1.234882,5.17899 -1.728687,7.79478 0,0 3.482663,1.81027 3.482663,1.81027 z" />
    <path
       style="fill:#ff6600;stroke-width:0.264583"
       id="path6837"
       d="m 78.905438,175.58256 c 0.144388,-2.17356 0.200064,-4.3497 0.231203,-6.52746 0.06316,-2.62089 0.01249,-5.28747 -0.795586,-7.80862 -0.139054,-0.43385 -0.329986,-0.84933 -0.494977,-1.27399 -0.238379,-0.38618 -0.438185,-0.79901 -0.71514,-1.15853 -0.504706,-0.65516 -1.401249,-1.47903 -2.110367,-1.90682 -1.434833,-0.86562 -2.886403,-1.7086 -4.384773,-2.45888 -0.881694,-0.44149 -2.61126,-0.78173 -3.523202,-0.99513 -0.660082,-0.12256 -1.31735,-0.2614 -1.980247,-0.36768 -1.44567,-0.2318 -2.921236,-0.38356 -4.376801,-0.53041 -2.308148,-0.23286 -4.619445,-0.43836 -6.928885,-0.65807 -3.561786,-0.33357 -7.117678,-0.7227 -10.684898,-0.99499 -0.977546,-0.071 -0.959163,-0.0715 -1.861405,-0.13068 -0.07695,-0.005 -0.844262,-0.0425 -1.014275,-0.0853 -0.05222,-0.0131 -0.09065,-0.0582 -0.135983,-0.0872 1.118529,0.7417 2.237058,1.4834 3.355586,2.22511 2.263212,-0.68274 4.518002,-1.39492 6.782464,-2.07431 1.210374,-0.35838 2.423623,-0.70732 3.642445,-1.03595 0.253349,-0.0683 0.506148,-0.13894 0.761167,-0.20073 0.156482,-0.0379 0.322307,-0.0414 0.472926,-0.0983 0.06727,-0.0254 0.108384,-0.0945 0.162576,-0.14181 -1.22792,-0.67789 -2.396947,-1.47562 -3.683767,-2.03369 -0.218392,-0.0947 -0.466566,0.0958 -0.701879,0.13173 -0.358155,0.0548 -0.717809,0.0998 -1.077854,0.14036 -1.5025,0.16915 -3.011979,0.27533 -4.519467,0.38718 -1.3663,0.11887 -2.736741,0.20207 -4.100824,0.34655 -0.29472,0.0312 -1.370042,0.13439 -1.695895,0.31024 -0.19766,0.10667 -0.322225,0.31299 -0.483335,0.46949 -0.05688,0.23497 -0.177218,0.46324 -0.170646,0.70491 0.01982,0.72883 0.460557,1.57754 0.791713,2.17239 0.752681,1.35201 1.709811,2.59227 2.629762,3.83109 1.045734,1.32014 2.07187,2.67193 3.265339,3.86568 0.201909,0.20196 0.417611,0.38964 0.626417,0.58446 0,0 3.443923,1.40298 3.443923,1.40298 v 0 c -0.227545,-0.19326 -0.463087,-0.37747 -0.682628,-0.57977 -1.273215,-1.17322 -2.355292,-2.5399 -3.435442,-3.88609 -0.905489,-1.20434 -1.849038,-2.403 -2.574687,-3.72956 -0.266753,-0.48765 -0.646433,-1.26878 -0.710502,-1.86888 -0.01786,-0.16731 0.04527,-0.33345 0.0679,-0.50018 0.112551,-0.11145 0.197538,-0.26049 0.337658,-0.33435 0.307174,-0.16191 1.275239,-0.30182 1.548575,-0.34184 1.320826,-0.1934 2.652525,-0.30448 3.982032,-0.41638 1.54681,-0.11636 3.094119,-0.21016 4.642032,-0.30976 0.393841,-0.0254 0.787575,-0.0523 1.18122,-0.0806 0.27175,-0.0195 1.006276,0.13145 0.814951,-0.0625 -0.859909,-0.87178 -1.991027,-1.42603 -2.98654,-2.13904 0.04889,-0.0327 0.203813,-0.11189 0.146658,-0.0981 -0.136935,0.0331 -0.260051,0.10871 -0.392226,0.15748 -0.231193,0.0853 -0.464712,0.16418 -0.697624,0.24467 -0.670783,0.23182 -1.422842,0.48597 -2.091563,0.70334 -0.461569,0.15004 -0.924698,0.29522 -1.387047,0.44283 -1.527106,0.46688 -3.055104,0.91365 -4.608515,1.28634 -1.046519,0.25107 -1.060952,0.23135 -2.002742,0.4373 -0.198901,0.0435 -0.396804,0.0914 -0.595207,0.13716 1.027946,0.78576 2.038255,1.59514 3.083833,2.35729 0.03363,0.0245 0.08176,-0.0174 0.123322,-0.0195 0.112173,-0.006 0.224618,-0.004 0.336939,-0.004 0.769893,5.3e-4 1.539602,0.025 2.30886,0.0538 3.479916,0.16956 6.949517,0.4835 10.417709,0.81064 4.45679,0.40864 8.943427,0.71112 13.328505,1.65156 0.645038,0.17222 1.299069,0.31372 1.935114,0.51665 0.559917,0.17864 1.640552,1.21422 1.648085,0.62655 0.0083,-0.64823 -1.052759,-0.77239 -1.642769,-1.04101 -0.428011,-0.19486 0.788913,0.51593 1.150345,0.81682 1.013708,0.84389 1.009409,0.99543 1.734309,2.06286 0.179155,0.41569 0.384702,0.82098 0.537461,1.24708 0.889797,2.482 0.960861,5.13603 0.896314,7.74198 -0.0901,2.08989 -0.167643,4.20842 -0.631757,6.25529 0,0 3.492109,1.85853 3.492109,1.85853 z" />
    <path
       style="fill:#ff6600;stroke-width:0.264583"
       id="path6893"
       d="m 35.264489,108.13151 c -0.871043,-0.15456 -1.736233,-0.33448 -2.610876,-0.4692 -1.406319,-0.22973 -2.827277,-0.2539 -4.2471,-0.19391 -0.946105,0.0606 -1.886249,0.22906 -2.774123,0.56862 -0.556951,0.213 -0.727903,0.32345 -1.250628,0.59996 -0.687085,0.40054 -1.325277,0.88533 -1.836561,1.4986 -0.271803,0.32601 -0.335353,0.45244 -0.556444,0.80461 -0.30893,0.53016 -0.524109,1.10445 -0.690271,1.69293 -0.06866,0.2925 -0.132256,0.58407 -0.22969,0.86865 -0.116143,0.32905 -0.288146,0.63213 -0.486737,0.91751 -0.120683,0.1618 -0.243664,0.32215 -0.371445,0.47844 0.04464,0.0417 -0.04238,0.044 -0.04258,0.0271 -0.01895,-1.60405 4.583358,2.63098 3.223981,1.62121 -0.536706,-0.57608 -0.842621,-1.32317 -1.154407,-2.03509 -0.348302,-0.82252 -0.661593,-1.65926 -0.949816,-2.50455 -0.02819,-0.0849 -0.05661,-0.16975 -0.08457,-0.25474 -0.02194,-0.0667 -0.04359,-0.13352 -0.06514,-0.20035 -0.0163,-0.0505 -0.03494,-0.10039 -0.0484,-0.15175 -0.0029,-0.011 0.01002,-0.0293 -2.91e-4,-0.0341 -3.665087,-1.69002 -4.220963,-2.75816 -3.489484,-1.45308 0.387321,0.90346 0.797459,1.7953 1.235192,2.6755 0.400865,0.80038 0.836697,1.5823 1.271578,2.36447 0.164783,0.2967 0.328742,0.59394 0.484502,0.89551 0.01455,0.0495 0.05866,0.0925 0.07057,0.14314 0.0042,0.0177 -0.01228,0.0452 0.0034,0.0544 3.438604,2.00254 2.198547,2.34792 3.555923,1.94644 0.703842,0.008 1.407718,0.002 2.11159,-6e-5 1.162625,5.3e-4 2.325207,-0.0121 3.48781,-0.0184 0.479806,-0.0145 0.956212,0.0208 1.431875,0.0755 0.116247,0.0175 0.212256,0.0399 0.31741,-0.0172 0,0 -3.257598,-2.29397 -3.257598,-2.29397 v 0 c -0.06477,-0.0562 -0.161922,-0.0264 -0.240975,-0.0377 -0.450334,-0.0163 -0.900697,0.0158 -1.350573,0.0319 -1.144374,0.0463 -2.289995,0.072 -3.435195,0.0397 -0.75567,-0.0219 -1.512797,-0.0433 -2.263694,-0.13774 -1.120875,-0.75918 -0.511041,-0.3444 3.337687,1.91673 0.01208,0.007 -0.0244,0.0188 -0.03833,0.0172 -0.04027,-0.004 -0.07659,-0.0948 -0.103652,-0.11313 -0.206153,-0.30002 -0.379487,-0.62141 -0.573852,-0.92893 -0.475239,-0.7831 -0.946961,-1.56917 -1.36933,-2.38245 -0.423342,-0.83584 -0.839214,-1.6805 -1.106418,-2.58188 -0.363057,-1.46628 -0.0053,-0.20576 -3.675761,-1.89591 -0.02332,-0.0107 0.02184,0.0465 0.0317,0.0702 0.08785,0.21122 0.171001,0.42449 0.257145,0.63641 0.33288,0.85085 0.664006,1.70241 1.004254,2.55035 0.291226,0.71391 0.571582,1.44043 0.976349,2.09957 0.77311,1.2641 2.870275,3.20368 3.869904,1.90243 0.115153,-0.17216 0.231227,-0.34364 0.348161,-0.5146 0.203526,-0.31837 0.387489,-0.64965 0.52664,-1.00174 0.114967,-0.2957 0.218731,-0.5947 0.250553,-0.91261 0.102408,-0.56861 0.262617,-1.12487 0.539232,-1.63593 0.197108,-0.33596 0.246045,-0.44699 0.496307,-0.75649 0.471493,-0.58311 1.071673,-1.04081 1.716933,-1.41579 0.523317,-0.26825 0.647177,-0.35363 1.20768,-0.5514 0.869673,-0.30685 1.786623,-0.44473 2.704547,-0.49338 1.417611,-0.041 2.835635,0.0179 4.23331,0.27853 0.924319,0.17198 1.843143,0.37108 2.756085,0.59606 0,0 -3.14639,-2.38562 -3.14639,-2.38562 z" />
    <path
       style="fill:#ff6600;stroke-width:0.264583"
       id="path6895"
       d="m 50.320413,103.1124 c -0.829805,0.0804 -1.655445,-0.0914 -2.461622,-0.26771 -1.345179,-0.34443 -2.680338,-0.72755 -4.007983,-1.13408 -1.380688,-0.42142 -2.719795,-0.96164 -4.054094,-1.50896 -1.059153,-0.444024 -2.148009,-0.811089 -3.248993,-1.135608 -0.655722,-0.190228 -1.323277,-0.33551 -2.000414,-0.422161 -0.236154,-0.06366 -0.500227,0.0024 -0.73446,-0.05908 1.117391,0.753251 2.213155,1.539629 3.352176,2.259759 0.04873,0.0308 0.113239,-0.0218 0.169788,-0.0331 0.08696,-0.0173 0.173551,-0.0365 0.260745,-0.0527 0.38791,-0.0717 0.778372,-0.12063 1.169667,-0.16933 0.840515,-0.099 1.686216,-0.13895 2.531806,-0.15901 0.567713,-0.0145 1.135546,0.006 1.703223,-0.006 0.219501,-0.0179 0.447141,0.002 0.664409,-0.0397 1.267147,-0.585332 0.193164,-0.0743 -3.298294,-2.310704 -0.04988,-0.03195 -0.115448,0.02657 -0.173159,0.03991 -0.359487,0.08312 -0.715875,0.176932 -1.072951,0.269862 -1.105152,0.281413 -2.216238,0.539033 -3.327239,0.796173 -0.786138,0.179007 -1.574202,0.349449 -2.367492,0.493739 -0.264014,0.05667 -0.542726,0.07191 -0.793001,0.180168 -0.167179,0.115546 -0.23224,0.283792 -0.211664,0.484112 0.258424,0.32325 0.599956,0.57545 0.910619,0.84793 0.244544,0.21152 0.478391,0.43452 0.702903,0.66706 0.09002,0.0969 0.18874,0.18631 0.269735,0.29113 0.02717,0.0128 0.03337,0.0795 0.06038,0.0896 0.04882,0.0182 0.07286,-0.12787 0.02892,0.0502 0.01109,0.10949 -0.0098,0.097 0.07261,0.008 0,0 3.61759,1.66752 3.61759,1.66752 v 0 c 0.03656,-0.16971 0.07108,-0.18145 -0.01691,-0.10807 -0.08482,0.10649 -0.01577,-0.007 -0.03119,-0.0598 -0.008,-0.0277 -0.06835,-0.0435 -0.07264,-0.0752 -0.08932,-0.11704 -0.168577,-0.2414 -0.27599,-0.34393 -0.238606,-0.24402 -0.476284,-0.48955 -0.734853,-0.71282 -0.287986,-0.25559 -0.571064,-0.52066 -0.879846,-0.75056 -0.02183,0.007 -0.04739,0.008 -0.06549,0.0222 -0.06739,0.0532 -0.100473,0.14477 -0.09729,0.14653 0.006,0.003 0.01376,-2.7e-4 0.02064,-5.3e-4 0.230704,-0.0629 0.461381,-0.12581 0.694182,-0.18062 0.761675,-0.18845 1.52358,-0.37595 2.286037,-0.56121 1.111772,-0.27288 2.222575,-0.55206 3.345413,-0.77661 0.338304,-0.0632 0.526587,-0.10483 0.857787,-0.14467 1.629328,-0.19596 1.493684,0.61976 -2.696337,-2.328685 -0.199265,0.0067 -0.3976,0.0442 -0.597654,0.04199 -0.547891,0.01995 -1.096248,0.02596 -1.643964,0.05143 -0.846836,0.03842 -1.693064,0.09408 -2.534841,0.197014 -0.410644,0.04764 -0.821555,0.09389 -1.231114,0.150363 -0.09856,0.0136 -0.197289,0.02627 -0.295291,0.04344 -0.07171,0.01254 -0.26997,-5.3e-4 -0.213596,0.04563 1.004957,0.821309 2.079917,1.553038 3.119875,2.329548 0.217257,-0.0316 0.443587,0.0313 0.660079,0.0394 0.637432,0.0887 1.266047,0.22919 1.88399,0.40918 1.076433,0.32069 2.136587,0.69183 3.173981,1.12339 1.333177,0.5323 2.673548,1.05005 4.049493,1.46305 1.349073,0.40708 2.701129,0.80927 4.070771,1.14188 0.879787,0.18206 1.768273,0.33051 2.670746,0.28958 0,0 -3.209195,-2.29911 -3.209195,-2.29911 z" />
    <path
       style="fill:#ff6600;stroke-width:0.264583"
       id="path6897"
       d="m 173.02269,167.8136 c -0.80194,1.80024 -1.60403,3.60034 -2.42619,5.39148 -0.8489,1.84788 -1.70548,3.69652 -2.38607,5.61489 -0.44542,1.2555 -0.48698,1.47508 -0.85227,2.75094 -0.75913,2.67895 -0.98468,5.39171 -1.12191,8.15755 -0.0728,1.8477 -0.0648,3.69778 0.0148,5.54497 0.0286,0.4937 0.0562,0.98885 0.13114,1.47816 0.23839,1.65696 -1.38472,-0.46929 3.49714,2.31651 0.0449,-0.01 0.0891,-0.024 0.13477,-0.0299 0.31102,-0.0401 0.63662,-0.0333 0.94884,-0.0477 1.25231,-0.0577 -0.17794,0.004 1.26551,-0.0567 2.17049,-0.10545 4.34323,-0.10478 6.51533,-0.0702 2.81291,0.0828 5.62512,0.18021 8.43939,0.19562 1.88254,-0.0171 3.76966,-0.0701 5.63873,-0.31361 1.21931,-0.15887 1.49217,-0.23749 2.69235,-0.48371 1.74828,-0.40193 3.45722,-0.96392 5.08765,-1.71368 1.03808,-0.47736 1.4088,-0.70089 2.41192,-1.24659 1.99274,-1.13884 3.79537,-2.56551 5.53693,-4.05109 0.7031,-0.64354 1.46925,-1.25272 1.99948,-2.05564 0.35328,-0.72622 -0.18036,-1.11929 -0.66633,-1.59365 -1.20265,-1.09079 -2.51261,-2.05615 -3.83025,-3.00185 -1.95708,-1.39889 -3.93965,-2.76146 -5.90954,-4.14217 -2.14779,-1.51211 -4.23581,-3.10642 -6.39975,-4.59549 -2.44295,-1.55597 -4.91334,-3.10003 -7.53007,-4.34928 -1.0571,-0.50467 -1.28527,-0.57232 -2.36797,-0.99761 -1.50891,-0.55161 -3.07981,-0.90596 -4.68043,-1.04407 -0.95849,-0.0827 -1.26181,-0.062 -2.21202,-0.0607 -1.31746,0.0984 -2.88606,0.10415 -4.11172,0.66319 -0.17617,0.0804 -0.33692,0.19094 -0.50537,0.28642 0,0 3.17423,2.06578 3.17423,2.06578 v 0 c 0.1493,-0.0839 0.29214,-0.18046 0.44789,-0.25162 1.17681,-0.53765 2.63043,-0.56944 3.896,-0.65581 0.93041,0.002 1.21707,-0.0186 2.15619,0.0741 1.57394,0.1552 3.1146,0.53638 4.59422,1.09175 1.06759,0.43181 1.28813,0.49926 2.33058,1.00964 0.39393,0.19286 1.52558,0.85959 1.16867,0.60465 -0.57588,-0.41136 -1.21643,-0.72378 -1.82976,-1.07687 -0.74994,-0.43173 2.9591,1.73561 2.21062,1.36103 2.17841,1.47792 4.2714,3.07443 6.41811,4.59752 1.93004,1.36387 3.87187,2.71098 5.79015,4.09139 1.25795,0.90402 2.50727,1.82729 3.65332,2.87227 0.32629,0.31123 0.26028,0.24563 0.55188,0.53262 0.17746,0.17464 0.37064,0.294 0.26826,0.56201 -0.41217,0.81033 -1.10283,1.43785 -1.72559,2.08355 -1.6337,1.53876 -3.37399,2.9737 -5.33621,4.07943 -1.00176,0.53731 -1.35912,0.75174 -2.39669,1.2174 -1.61911,0.72665 -3.31588,1.26456 -5.04526,1.65781 -1.17888,0.23497 -1.46564,0.31415 -2.66254,0.46392 -1.85822,0.23251 -3.73406,0.28487 -5.60472,0.29145 -2.82609,-0.0193 -5.64982,-0.12242 -8.47384,-0.22681 -2.2358,-0.0553 -4.4719,-0.0694 -6.70834,-0.0522 -0.5996,-0.001 -0.77491,0.002 -1.34855,-0.01 -0.31938,-0.006 -0.70954,0.0208 -1.02509,-0.0633 -0.0366,-0.01 -0.0662,-0.0368 -0.0994,-0.0552 1.12154,0.64818 2.25368,1.27835 3.3646,1.94455 0.0193,0.0116 -0.034,0.0304 -0.0541,0.0407 -0.0428,0.022 -0.0718,-0.0262 -0.084,-0.0589 -0.009,-0.025 -0.0136,-0.0516 -0.0204,-0.0775 -0.13727,-0.49817 -0.25436,-1.00078 -0.31658,-1.51519 -0.24544,-1.86824 -0.34595,-3.75296 -0.30197,-5.63733 0.0417,-1.14147 0.0422,-1.56748 0.14524,-2.71159 0.16358,-1.81689 0.46377,-3.62108 0.91052,-5.38999 0.12705,-0.45572 0.24454,-0.91422 0.38115,-1.36717 0.72353,-2.39898 1.70301,-4.71307 2.79792,-6.964 0.87245,-1.73799 1.71221,-3.52504 2.87842,-5.08995 0,0 -3.419,-1.98453 -3.419,-1.98453 z" />
    <path
       style="fill:#ff6600;stroke-width:0.264583"
       id="path6899"
       d="m 179.43062,179.74591 c -0.90508,0.28196 -1.76482,0.67662 -2.60284,1.11563 -1.04368,0.58296 -1.91611,1.40053 -2.63762,2.34564 -0.30323,0.44091 -0.526,0.95018 -0.28465,1.47997 0.19823,0.43516 0.42236,0.56661 0.777,0.89383 0.21082,0.14572 0.41184,0.30675 0.63245,0.43716 1.28554,0.75991 2.57904,1.50671 3.88406,2.23266 0.26498,0.1474 1.38433,0.63032 1.65272,0.74864 1.00591,0.44346 0.59561,0.25684 1.55061,0.70927 0.21622,0.11255 0.43483,0.22062 0.64865,0.33765 0.18896,0.10342 0.74676,0.42978 0.55939,0.32353 -0.92156,-0.52259 -1.83321,-1.06284 -2.76196,-1.57254 -0.13081,-0.0718 0.24783,0.16665 0.36608,0.25767 0.29152,0.22443 0.26859,0.22436 0.49276,0.4902 0.0452,0.0966 0.1072,0.18702 0.13558,0.28984 0.17621,0.63842 -0.2102,1.27653 -0.61019,1.73979 -0.13124,0.152 -0.28504,0.28295 -0.42756,0.42443 -1.03521,0.81722 -2.02023,0.97516 -3.30107,0.96569 -0.31728,-0.0369 -0.58394,-0.0438 -0.88223,-0.16488 -0.10741,-0.0436 -0.40134,-0.23214 -0.30004,-0.17579 1.0352,0.57592 2.0439,1.20153 3.10183,1.73454 0.0818,0.0412 -0.1177,-0.14948 -0.13443,-0.23948 -0.0263,-0.14161 0.006,-0.288 0.01,-0.43199 0.0605,-0.20098 0.10609,-0.40705 0.18141,-0.60295 0.18738,-0.48734 0.50886,-1.08223 0.76602,-1.52674 0.48097,-0.83142 1.02969,-1.61754 1.57714,-2.40557 0.965,-1.3343 1.87926,-2.70355 2.61386,-4.17898 0.28526,-0.70377 0.68625,-1.61895 0.26138,-2.36002 -0.0687,-0.11985 -0.17546,-0.21345 -0.26318,-0.32018 -1.23434,-0.69219 -2.43566,-1.44687 -3.70301,-2.07658 -0.14491,-0.072 -1.05985,-0.0176 -1.17204,-0.009 -0.681,0.0551 -1.34429,0.19228 -2.01039,0.33686 -0.56586,0.1175 -1.11046,0.30386 -1.6505,0.50506 0,0 3.16003,2.12426 3.16003,2.12426 v 0 c 0.50926,-0.19958 1.0233,-0.38414 1.5612,-0.49382 0.6553,-0.13239 1.30717,-0.25935 1.97933,-0.26091 0.20565,-5.3e-4 0.41238,0.006 0.61596,0.0351 1.25546,0.17977 2.88125,1.55727 -2.34779,-1.61126 0.10511,0.062 0.22437,0.10465 0.31534,0.186 0.59412,0.53128 0.19921,1.4962 -0.002,2.10136 -0.0879,0.20055 -0.169,0.4042 -0.26362,0.60166 -0.6088,1.27061 -1.43735,2.41746 -2.22502,3.57962 -0.54484,0.80124 -1.0886,1.60281 -1.60039,2.42582 -0.27341,0.43967 -0.65048,1.0594 -0.8839,1.53088 -0.10362,0.20931 -0.18663,0.42821 -0.27995,0.64231 -0.009,0.0381 -0.25481,0.84941 -0.096,0.96455 1.11344,0.80713 2.33428,1.45542 3.5226,2.14758 0.0982,0.0572 0.21603,0.0725 0.32743,0.0949 0.34121,0.0688 0.53858,0.0568 0.89266,0.0657 1.33257,-0.0827 2.39089,-0.32932 3.4328,-1.22288 0.15265,-0.15566 0.31515,-0.30224 0.45797,-0.46697 0.47827,-0.55166 0.92961,-1.25135 0.87054,-2.01546 -0.0103,-0.13299 -0.0581,-0.26037 -0.0871,-0.39055 -0.0638,-0.11014 -0.11344,-0.22987 -0.19151,-0.33042 -0.13757,-0.17717 -0.49914,-0.48089 -0.67934,-0.58928 -1.59236,-0.95776 -3.1815,-1.95144 -4.86286,-2.75423 -0.78445,-0.35542 -1.58119,-0.68741 -2.3579,-1.05954 -0.27626,-0.13236 -1.08023,-0.57617 -0.82089,-0.41314 0.59446,0.3737 3.75161,2.22565 1.82772,1.04723 -0.33261,-0.25104 -0.7742,-0.5199 -0.91281,-0.94867 -0.10364,-0.32058 0.0823,-0.61967 0.22962,-0.88652 0.65435,-0.95672 1.45192,-1.68699 2.48496,-2.2277 0.86165,-0.41656 1.75419,-0.79286 2.70888,-0.92973 0,0 -3.24473,-2.24972 -3.24473,-2.24972 z" />
    <path
       style="fill:#ff6600;stroke-width:0.264583"
       id="path6901"
       d="m 188.06694,180.40838 c -0.52952,0.12757 -1.04784,0.32536 -1.4951,0.64252 -0.14777,0.10478 -0.28216,0.22728 -0.42323,0.34091 -0.74766,0.71917 -1.36845,1.57855 -1.69838,2.57021 -0.0634,0.1906 -0.10468,0.38787 -0.15702,0.58181 -0.16231,0.84149 -0.16513,1.7265 0.17988,2.5259 0.05,0.11577 0.1169,0.22345 0.17535,0.33517 0.0669,0.089 0.12517,0.1852 0.20077,0.26695 0.0699,0.0756 0.14306,0.15297 0.23337,0.2025 1.21038,0.66382 2.40366,1.36648 3.66211,1.93392 0.12175,0.0549 0.26335,-0.055 0.3856,-0.10879 0.37809,-0.16624 0.52611,-0.33802 0.84069,-0.60889 0.93577,-0.99691 1.42782,-2.28728 1.87478,-3.55586 0.24485,-0.68981 0.40168,-1.40733 0.64031,-2.09884 0.0144,-0.036 0.0273,-0.0726 0.0432,-0.10798 0.0779,-0.17317 0.001,0.23073 -0.0775,0.19064 -3.05346,-1.56023 -4.12997,-3.03017 -3.27368,-1.88153 0.29003,0.87819 0.47077,1.79198 0.68826,2.69082 0.40706,1.61524 0.90943,3.20418 1.38331,4.80054 0.34384,1.16815 0.64147,2.34935 1.00662,3.51118 0.10515,0.33981 0.24119,0.66774 0.38334,0.9932 0,0 3.53036,1.60331 3.53036,1.60331 v 0 c -0.168,-0.31719 -0.32752,-0.63829 -0.45263,-0.97551 -0.43741,-1.16422 -0.77338,-2.36152 -1.12795,-3.55282 -0.48977,-1.57503 -1.02114,-3.14135 -1.35974,-4.75825 -0.17866,-0.87563 -0.34763,-1.75363 -0.47674,-2.63816 -0.16154,-1.58633 -3.31274,-3.51791 -3.72001,-1.7514 -0.14764,0.72349 -0.26216,1.4549 -0.47535,2.16355 -0.38387,1.21614 -0.8414,2.45366 -1.79782,3.34269 -0.29588,0.20185 -0.43103,0.34618 -0.78482,0.40797 -0.10563,0.0184 -0.41109,-0.0676 -0.32158,-0.009 0.98699,0.651 2.04306,1.19104 3.05109,1.80894 0.0856,0.0525 -0.19415,-0.0589 -0.28033,-0.11053 -0.0914,-0.0547 -0.16385,-0.1363 -0.24578,-0.20445 -0.0726,-0.0955 -0.15463,-0.18442 -0.21768,-0.28642 -0.43201,-0.69888 -0.47084,-1.54137 -0.34899,-2.33189 0.0442,-0.18158 0.0774,-0.36618 0.13253,-0.54473 0.28898,-0.93578 0.86335,-1.74881 1.61185,-2.37328 0.13927,-0.094 0.27261,-0.19744 0.41782,-0.28196 0.46401,-0.27012 0.99511,-0.41046 1.52703,-0.45264 0,0 -3.23393,-2.28021 -3.23393,-2.28021 z" />
    <path
       style="fill:#ff6600;stroke-width:0.264583"
       id="path6903"
       d="m 106.01385,163.29635 c -0.57535,0.0951 -1.15847,0.14324 -1.728,0.27377 -0.19122,0.0438 -0.37951,0.0996 -0.56926,0.14936 -0.22846,0.0882 -0.46229,0.16367 -0.68537,0.26474 -2.16393,0.98042 -3.909187,2.69514 -5.621308,4.29354 -1.778119,1.73804 -3.450712,3.58965 -4.925037,5.59436 -0.950333,1.29221 -1.143886,1.66118 -1.987658,3.01678 -1.72611,2.98897 -2.944095,6.22871 -4.136205,9.45682 -0.484716,1.35321 -0.981416,2.70385 -1.399497,4.07965 -0.506651,1.77242 0.01392,0.6806 3.297234,2.6427 0.835502,-0.2186 1.736241,-0.14361 2.588702,-0.096 2.158894,0.17984 4.226311,0.84175 6.257682,1.55584 2.324788,0.82276 4.527677,1.93155 6.686577,3.11324 1.78522,0.98784 3.55123,2.04321 5.47795,2.73969 0.35338,0.12774 0.71561,0.22954 1.07342,0.34431 1.74984,0.49629 3.5733,0.61134 5.37405,0.3622 0.38422,-0.0532 0.76384,-0.13551 1.14576,-0.20326 1.57884,-0.35479 3.12139,-0.87262 4.59149,-1.54989 0.92387,-0.42562 1.17751,-0.59142 2.05761,-1.08663 1.1455,-0.68777 2.29605,-1.40534 3.21405,-2.39081 0.52574,-0.56437 0.60218,-0.7377 1.02083,-1.37375 0.7472,-1.29701 1.04097,-2.7515 1.1056,-4.23338 0.0147,-0.33645 0.008,-0.67348 0.0122,-1.01022 -0.0185,-1.46555 -0.191,-2.92682 -0.5821,-4.34143 -0.254,-0.91872 -0.42147,-1.29782 -0.75907,-2.1877 -0.8455,-2.1968 -2.07355,-4.20442 -3.36803,-6.15888 -0.87051,-1.258 -1.82215,-2.46363 -2.88315,-3.56727 -0.69304,-0.7209 -0.88284,-0.86701 -1.62525,-1.5342 -0.85897,-0.72769 -1.77495,-1.39122 -2.74834,-1.95832 -1.34332,-0.78262 -2.6898,-1.56018 -4.04938,-2.31421 -0.60779,-0.33708 -1.48402,-0.70442 -2.11875,-0.98323 -1.30086,-0.50947 -2.6113,-1.0344 -3.97963,-1.3385 -0.28028,-0.0623 -0.56521,-0.10149 -0.84781,-0.15223 0,0 2.93032,2.21291 2.93032,2.21291 v 0 c 0.27031,0.0527 0.54264,0.0958 0.81093,0.158 1.3289,0.30784 2.60758,0.80454 3.86549,1.32315 0.35322,0.16028 0.70998,0.31297 1.05965,0.48086 1.08488,0.52088 2.72045,1.46541 -0.9909,-0.67263 -0.32562,-0.18758 0.64797,0.38118 0.96388,0.58468 0.87162,0.56146 0.98478,0.67893 1.8006,1.31453 0.27926,0.24331 0.56472,0.47968 0.83778,0.72992 1.40138,1.28426 2.63321,2.74476 3.7274,4.29652 1.30371,1.92716 2.52983,3.91326 3.39261,6.08372 0.32954,0.83938 0.52369,1.27524 0.77263,2.14254 0.39534,1.37741 0.56454,2.80573 0.57446,4.23637 -0.006,0.32682 -0.003,0.65399 -0.0193,0.98045 -0.0716,1.41341 -0.35804,2.80897 -1.05912,4.0515 -0.38717,0.60221 -0.46836,0.7821 -0.95511,1.3194 -0.87641,0.96744 -1.97886,1.68597 -3.08424,2.36141 -0.8422,0.47527 -1.13109,0.66109 -2.01563,1.06741 -1.45422,0.66802 -2.98741,1.15685 -4.55608,1.47056 -0.38182,0.0566 -0.76177,0.12757 -1.14544,0.16972 -1.77932,0.19549 -3.57221,0.0392 -5.28697,-0.4763 -0.3487,-0.11813 -0.70166,-0.22436 -1.0461,-0.35438 -1.89961,-0.71707 -3.64357,-1.7724 -5.41902,-2.74227 -2.179447,-1.17593 -4.403191,-2.27617 -6.747939,-3.08838 -2.091322,-0.71774 -4.218794,-1.36656 -6.432217,-1.56659 -0.780139,-0.0593 -0.791895,-0.073 -1.523468,-0.0844 -0.177223,-0.003 -0.354496,-2.3e-4 -0.53173,0.002 -0.208198,0.002 -0.417362,0.0297 -0.62456,0.009 -0.04152,-0.004 -0.07984,-0.0243 -0.119761,-0.0364 1.110361,0.68033 2.227273,1.35009 3.331089,2.04099 0.01225,0.008 -0.02532,0.0258 -0.03853,0.0199 -0.01381,-0.006 -0.01191,-0.0281 -0.01384,-0.0431 -0.01857,-0.1433 0.01725,-0.29101 0.02222,-0.43311 0.193882,-1.44599 0.577908,-2.8595 0.983054,-4.25827 0.390631,-1.24483 0.517917,-1.70172 0.982224,-2.95709 0.82854,-2.24017 1.819177,-4.42244 3.007791,-6.49535 0.310176,-0.50441 0.606893,-1.01735 0.930526,-1.51323 1.678072,-2.57122 3.697338,-4.91426 5.921751,-7.0258 0.45717,-0.40017 0.9028,-0.81392 1.37151,-1.2005 1.55252,-1.28049 3.25904,-2.45106 5.23593,-2.94362 0.80094,-0.15104 1.60823,-0.25051 2.4233,-0.28342 0,0 -3.22451,-2.28775 -3.22451,-2.28775 z" />
    <path
       style="fill:#ff6600;stroke-width:0.264583"
       id="path6905"
       d="m 103.53423,174.27638 c -0.86489,0.33287 -1.68955,0.75586 -2.46208,1.2683 -0.25518,0.16927 -0.50096,0.35229 -0.75144,0.52844 -1.152595,0.88258 -2.287199,1.85739 -3.060473,3.10497 -0.124473,0.20082 -0.223528,0.41633 -0.335291,0.62449 -0.373189,0.87545 -0.419237,1.78835 -0.108098,2.69193 0.224523,0.65204 0.433038,0.93533 0.784873,1.53552 0.901489,1.35412 2.066663,2.50052 3.057569,3.78521 0.16303,0.21137 0.31487,0.43115 0.47231,0.64672 0.45048,0.69764 0.88552,1.46852 0.88465,2.32652 -5.3e-4,0.47426 -0.0807,0.58034 -0.23737,1.01725 -0.0973,0.1493 -0.17869,0.31034 -0.29202,0.4479 -0.48739,0.59163 -1.24296,0.95884 -2.001787,1.02608 -0.206576,0.0183 -0.414745,-0.005 -0.622117,-0.007 -0.575847,-0.11806 -0.717333,-0.10854 -1.2524,-0.37489 -0.194943,-0.097 -0.750261,-0.44191 -0.557787,-0.34007 4.865601,2.57465 3.055611,2.06869 2.342758,1.06742 -0.103579,-0.14549 -0.169592,-0.31437 -0.254388,-0.47155 -0.03794,-0.17274 -0.100241,-0.34188 -0.113811,-0.51821 -0.07014,-0.91153 0.439775,-1.76866 0.987462,-2.44933 0.17954,-0.22313 0.38202,-0.42678 0.57303,-0.64017 1.33648,-1.30158 2.85312,-2.39807 4.29323,-3.57991 1.10656,-0.93437 2.15592,-1.96095 2.9317,-3.19384 0.14359,-0.2282 0.26681,-0.4686 0.40022,-0.7029 0.51976,-1.06845 0.92781,-2.23165 0.92778,-3.43504 -1e-5,-0.20949 -0.0282,-0.41804 -0.0423,-0.62706 -0.0896,-0.55209 -0.2561,-1.08976 -0.58957,-1.54687 -0.17895,-0.24529 -0.41725,-0.47156 -0.6841,-0.62015 -1.2286,-0.68409 -2.47452,-1.33658 -3.71179,-2.00488 -0.39072,-0.0163 -0.51521,-0.0536 -0.89678,0.0581 -0.14322,0.0419 -0.27515,0.11563 -0.41272,0.17345 0,0 3.18281,2.15012 3.18281,2.15012 v 0 c 0.45883,-0.12928 0.67269,-0.16666 1.14911,-0.0302 -0.96033,-0.57387 -1.9294,-1.13333 -2.88097,-1.7216 -0.12666,-0.0783 0.27757,0.1119 0.40411,0.19039 0.13044,0.0809 0.25344,0.17612 0.36188,0.28475 0.38131,0.38197 0.58337,0.87582 0.70852,1.39109 0.0253,0.19511 0.0653,0.38888 0.0758,0.58535 0.0613,1.15262 -0.31444,2.27985 -0.79132,3.31055 -0.34728,0.62844 -0.39323,0.75988 -0.82533,1.34382 -0.68412,0.92452 -1.52549,1.71597 -2.39493,2.46257 -0.71545,0.59741 -0.69989,0.59145 -1.4367,1.17791 -0.9872,0.78576 -2.008386,1.53657 -2.896608,2.43771 -0.203753,0.22028 -0.417891,0.43138 -0.611256,0.66083 -0.629068,0.74646 -1.199819,1.65324 -1.21421,2.66439 -0.0029,0.20493 0.04561,0.40737 0.06841,0.61105 0.07437,0.18672 0.125714,0.38435 0.223121,0.56015 0.765391,1.38135 3.341912,2.34282 4.043611,2.76226 0.590612,0.35304 1.250302,0.52308 1.933252,0.55838 0.22347,-0.0162 0.4494,-0.0118 0.67041,-0.0486 0.83887,-0.13973 1.63989,-0.59377 2.17335,-1.25881 0.12913,-0.16098 0.22519,-0.3459 0.33779,-0.51885 0.18628,-0.4907 0.28577,-0.63395 0.30765,-1.16859 0.0382,-0.93392 -0.39206,-1.78593 -0.88154,-2.54857 -0.16508,-0.22587 -0.32365,-0.45666 -0.49525,-0.67763 -0.98834,-1.27269 -2.15061,-2.40496 -3.06962,-3.73258 -0.63573,-1.04329 -1.21285,-1.99192 -0.956704,-3.26795 0.04059,-0.20217 0.119014,-0.39486 0.178524,-0.5923 0.0966,-0.19941 0.18014,-0.40567 0.28971,-0.59825 0.70335,-1.23616 1.80361,-2.18696 2.9351,-3.01731 0.253,-0.16412 0.49938,-0.33894 0.75901,-0.49235 0.81311,-0.48045 1.7047,-0.85149 2.63565,-1.02257 0,0 -3.25264,-2.24574 -3.25264,-2.24574 z" />
    <path
       style="fill:#ff6600;stroke-width:0.264583"
       id="path6907"
       d="m 111.83165,193.31083 c 0.85252,-0.17049 1.49719,-0.69595 2.13029,-1.2586 1.23911,-1.30367 2.08023,-2.91852 2.88821,-4.50907 0.58847,-1.20788 1.11556,-2.44784 1.52904,-3.72713 0.24291,-0.75154 0.27637,-0.93435 0.46678,-1.6883 0.26521,-1.19499 0.42463,-2.44136 0.17945,-3.65511 -0.0436,-0.21585 -0.11255,-0.4258 -0.16883,-0.63869 -0.19044,-0.48561 -0.22961,-0.64954 -0.49598,-1.0889 -0.10418,-0.17184 -0.42341,-0.63143 -0.61369,-0.74875 -3.5257,-2.17398 -2.2735,-2.00753 -4.10942,-2.1532 -0.92395,0.11539 -1.73724,0.60204 -2.36988,1.27526 -0.12621,0.13431 -0.23593,0.2832 -0.3539,0.42479 -0.49718,0.6702 -0.80798,1.43503 -0.90484,2.26105 10e-4,0.19646 -0.0139,0.33623 0.0503,0.52584 0.056,0.16523 0.16677,0.35236 0.32571,0.4413 1.2054,0.67456 2.43382,1.30716 3.65073,1.96073 0,0 -3.08008,-2.36382 -3.08008,-2.36382 v 0 c 1.02249,0.60131 2.05691,1.18277 3.06746,1.80394 0.0722,0.0444 -0.16691,-0.0353 -0.24471,-0.0689 -0.14879,-0.0642 -0.22181,-0.13227 -0.27498,-0.28595 -0.0249,-0.072 -0.0264,-0.14996 -0.0396,-0.22495 0.003,-0.76345 0.25558,-1.4748 0.7027,-2.09548 0.10819,-0.12877 0.20772,-0.26533 0.32455,-0.38629 0.46059,-0.4769 1.08242,-0.88383 1.7547,-0.96372 0.14807,-0.0176 0.2982,0.003 0.4473,0.005 1.43346,0.45674 0.76669,0.27752 -2.48736,-1.59536 -0.13175,-0.0758 0.25461,0.16867 0.3659,0.27223 0.41253,0.38393 0.67654,0.89025 0.89755,1.39951 0.0653,0.20054 0.14352,0.39733 0.19596,0.60161 0.29981,1.168 0.17088,2.38689 -0.0506,3.55504 -0.16411,0.7343 -0.19881,0.94709 -0.41611,1.67909 -0.378,1.27331 -0.88511,2.50469 -1.47357,3.69452 -0.80637,1.54115 -1.66573,3.10193 -2.95428,4.29839 -0.15562,0.12157 -0.30449,0.25229 -0.46685,0.36469 -0.4951,0.34279 -1.07302,0.59118 -1.68315,0.5763 0,0 3.21111,2.31292 3.21111,2.31292 z" />
    <path
       style="fill:#000000;stroke-width:0.264583"
       id="path6909"
       d="m 109.80117,179.8612 c 0.1462,0.45717 0.27394,0.91996 0.40908,1.38046 0.0875,0.31909 0.19614,0.62939 0.36317,0.91552 0.0319,0.0427 0.061,0.0877 0.0957,0.12805 0.0556,0.0645 0.19029,0.19509 0.26292,0.23686 1.90537,1.09591 2.40185,1.8825 3.96459,2.07583 0.38462,0.0261 0.77037,-0.007 1.15082,-0.0638 0.16644,-0.0266 0.32877,-0.074 0.4942,-0.10512 0.27648,-0.0833 0.20463,-0.0948 0.35611,-0.45758 -2.40353,-1.91373 -2.63771,-1.61529 -4.38777,-2.41383 -1.18814,-0.63517 -2.82733,-1.59391 2.68496,1.55464 0.0679,0.0388 -0.13363,-0.0813 -0.19867,-0.12472 -0.16431,-0.10966 -0.19205,-0.13763 -0.3429,-0.25963 -0.28188,-0.23218 -0.48754,-0.52404 -0.6439,-0.85068 -0.18519,-0.42639 -0.20318,-0.89173 -0.21354,-1.34926 -0.003,-0.50565 0.0469,-1.00891 0.0994,-1.51111 0.0165,-0.16167 0.0353,-0.32311 0.0504,-0.48491 -0.68486,1.15501 0.0526,-0.0666 -3.53114,-1.71623 -0.0414,-0.019 0.0129,0.0902 0.0165,0.13565 0.0158,0.19423 0.01,0.3893 0.006,0.5838 -0.0141,0.38763 -0.054,0.77374 -0.0585,1.1617 0.008,0.47422 0.13785,0.93165 0.29219,1.37617 0.16978,0.49383 0.47891,0.88292 0.87918,1.2076 1.41086,1.04636 2.87792,2.0167 4.58037,2.37669 0.40681,0.0821 0.81538,0.15548 1.22347,0.23099 0,0 -3.10873,-2.34879 -3.10873,-2.34879 v 0 c -0.4094,-0.0794 -0.82002,-0.15463 -1.22439,-0.25738 -0.2075,-0.0577 -0.41071,-0.11734 -0.60764,-0.206 -0.0632,-0.0284 -0.24631,-0.12664 -0.18649,-0.0917 3.01819,1.76249 4.26292,2.37899 2.96159,1.72913 -0.41598,-0.24801 -0.78212,-0.54158 -0.98101,-0.99839 -0.1664,-0.39542 -0.29453,-0.80601 -0.3193,-1.23734 -0.0176,-0.3838 0.007,-0.76754 0.0314,-1.15062 0.0118,-0.19861 0.0228,-0.39721 0.0329,-0.59591 0.002,-0.049 0.0498,-0.12187 0.008,-0.14687 -3.50219,-2.07671 -3.00735,-3.17626 -3.56166,-1.86836 0.01,0.16439 0.009,0.32915 0.007,0.49375 -0.0129,0.51853 -0.0526,1.03588 -0.0673,1.55439 -0.0138,0.48841 -0.033,0.98729 0.10534,1.46159 0.12359,0.37911 0.30495,0.73219 0.58525,1.02124 0.1597,0.16069 0.32924,0.3415 0.52644,0.4575 1.30782,0.76936 2.61425,1.64386 4.01566,2.27704 1.43523,0.61557 3.75583,1.76779 -2.35384,-1.53332 0.29731,-0.44775 0.2894,-0.32111 0.0521,-0.2837 -0.14522,0.0412 -0.29318,0.074 -0.44301,0.0932 -0.34972,0.0412 -0.70499,0.0577 -1.04993,-0.0291 -0.0644,-0.02 -0.13018,-0.0363 -0.19332,-0.0601 -0.0613,-0.0231 -0.23572,-0.11365 -0.17921,-0.0805 1.06243,0.62239 2.13589,1.22585 3.19791,1.84895 0.0926,0.0544 -0.19882,-0.0843 -0.28896,-0.14269 -0.0387,-0.0251 -0.0751,-0.0538 -0.1126,-0.0806 -0.22908,-0.21932 -0.35114,-0.50341 -0.44836,-0.80215 -0.14841,-0.44107 -0.29034,-0.88589 -0.38402,-1.34229 0,0 -3.56543,-1.70804 -3.56543,-1.70804 z" />
    <rect
       style="fill:#000000;stroke-width:0.294826"
       id="rect6911"
       width="0.8254298"
       height="10.296749"
       x="38.80468"
       y="69.774414" />
    <rect
       style="fill:#000000;stroke-width:0.277812"
       id="rect6913-5"
       width="10.5"
       height="10.5"
       x="33.923229"
       y="59.601357" />
    <rect
       style="fill:#ffffff;stroke-width:0.264583"
       id="rect6913"
       width="10"
       height="10"
       x="34.17651"
       y="59.79377" />
    <rect
       style="fill:#000000;stroke-width:0.264583"
       id="rect6952"
       width="1.3741541"
       height="5.1384506"
       x="36.546501"
       y="63.560268" />
    <rect
       style="fill:#000000;stroke-width:0.218763"
       id="rect6952-3"
       width="3.9765711"
       height="1.2138948"
       x="36.54985"
       y="62.417839" />
    <path
       id="rect6991"
       style="stroke-width:0.264583"
       d="m 39.826745,61.358745 2.375205,1.701976 -2.392324,1.493627 0.615389,-1.482632 z"
       sodipodi:nodetypes="ccccc" />
    <path
       id="rect6991-5"
       style="stroke-width:0.264583"
       d="m 36.766596,60.4544 2.86026,-0.597689 -0.518559,2.772225 -0.675499,-1.456229 z"
       sodipodi:nodetypes="ccccc" />
    <rect
       style="fill:#000000;stroke-width:0.264583"
       id="rect7109"
       width="1.3526297"
       height="2.8336763"
       x="62.096733"
       y="35.592758"
       transform="rotate(28.207047)" />
    <path
       sodipodi:type="star"
       style="fill:#ffffff;stroke-width:0.264583"
       id="path7163"
       inkscape:flatsided="true"
       sodipodi:sides="3"
       sodipodi:cx="36.297539"
       sodipodi:cy="62.09478"
       sodipodi:r1="0.61082119"
       sodipodi:r2="0.30541059"
       sodipodi:arg1="1.5707963"
       sodipodi:arg2="2.6179939"
       inkscape:rounded="0"
       inkscape:randomized="0"
       d="m 36.297539,62.705601 -0.528987,-0.916232 1.057973,0 z"
       inkscape:transform-center-y="0.15270451"
       transform="translate(0.24169703,0.4918044)" />
    <path
       style="fill:#ff6600;stroke-width:0.264583"
       id="path7204"
       d="m 40.407346,60.615993 c -0.07163,0.02702 -0.142309,0.05573 -0.212045,0.08749 -0.166473,0.08384 -0.323826,0.184952 -0.483806,0.28048 -0.203423,0.116242 -0.394111,0.252057 -0.584399,0.388225 -0.152617,0.111451 -0.296889,0.234704 -0.43089,0.368004 -0.09334,0.09285 -0.130916,0.137649 -0.219276,0.236217 -0.192698,0.226023 -0.365453,0.46926 -0.513683,0.726747 -0.02967,0.05153 -0.05683,0.10445 -0.08525,0.156676 -0.09919,0.194238 -0.179168,0.398536 -0.229495,0.611029 -0.0302,0.127526 -0.03331,0.17277 -0.05117,0.302154 -0.03129,0.338278 -0.0034,0.678325 0.03722,1.014481 0.03785,0.274971 0.114573,0.544354 0.233194,0.795615 0.02252,0.04771 0.04829,0.09383 0.07243,0.14074 0.134927,0.235167 0.305218,0.448715 0.509485,0.627446 0.04248,0.03718 0.08754,0.07131 0.131312,0.106961 0.04642,0.03284 0.09181,0.0672 0.139261,0.09852 0.04757,0.0314 0.09614,0.06133 0.145661,0.08955 0.39116,0.222903 0.677222,0.427296 1.061659,0.573907 0.138912,0.05298 0.188132,0.06403 0.330759,0.105315 0.22425,0.05742 0.454482,0.09126 0.686241,0.09149 0.151316,1.51e-4 0.212413,-0.0088 0.363758,-0.02244 0.259148,-0.0313 0.516461,-0.08011 0.764648,-0.162076 0.171207,-0.05654 0.215593,-0.07908 0.380701,-0.148654 0.177004,-0.08933 0.351512,-0.188439 0.509135,-0.309559 0.153662,-0.118076 0.286046,-0.258133 0.417518,-0.399482 0.132202,-0.148457 0.226989,-0.323207 0.329774,-0.491781 0.03503,-0.05745 0.07246,-0.113434 0.106751,-0.171331 0.08373,-0.141359 0.108286,-0.194733 0.182116,-0.339111 0.05465,-0.134302 0.08523,-0.197257 0.12269,-0.336992 0.04639,-0.17304 0.0664,-0.351639 0.08778,-0.528947 0,0 -0.772895,-0.404257 -0.772895,-0.404257 v 0 c -0.0053,0.05717 -0.009,0.114515 -0.01603,0.171501 -0.02833,0.230529 -0.08361,0.457562 -0.172845,0.672298 -0.02521,0.05554 -0.04855,0.111966 -0.07565,0.166606 -0.08982,0.181049 -0.196329,0.346934 -0.309036,0.514151 -0.03517,0.05218 -0.06906,0.105275 -0.106069,0.156165 -0.03598,0.04946 -0.07518,0.09649 -0.112773,0.144735 -0.04154,0.04561 -0.08106,0.09315 -0.124613,0.13684 -0.08306,0.08333 -0.191826,0.174596 -0.28479,0.246795 -0.1064,0.08263 -0.192953,0.144431 -0.311587,0.210013 -0.0584,0.03229 -0.119663,0.05911 -0.179496,0.08867 -0.156035,0.06614 -0.207319,0.09292 -0.371263,0.141732 -0.249415,0.07425 -0.508159,0.114668 -0.766612,0.139949 -0.158202,0.0086 -0.206253,0.01495 -0.363664,0.0092 -0.228412,-0.0084 -0.454954,-0.04672 -0.674661,-0.109162 -0.144608,-0.04582 -0.184274,-0.05494 -0.324795,-0.113358 -0.05284,-0.02196 -0.204663,-0.101512 -0.156509,-0.07059 0.194268,0.124762 0.397934,0.234257 0.596027,0.352851 0.04843,0.029 -0.09894,-0.05449 -0.147031,-0.08405 -0.04766,-0.02929 -0.09338,-0.06161 -0.140079,-0.09241 -0.04372,-0.03336 -0.08866,-0.06516 -0.131151,-0.10007 -0.205129,-0.168532 -0.378616,-0.371756 -0.516866,-0.598146 -0.02535,-0.04529 -0.05221,-0.08975 -0.07603,-0.135861 -0.125706,-0.243306 -0.211098,-0.506212 -0.254185,-0.776521 -0.0076,-0.05682 -0.01635,-0.113493 -0.02273,-0.170463 -0.03033,-0.270822 -0.03466,-0.544949 -0.0096,-0.816342 0.0059,-0.04898 0.01032,-0.09815 0.01765,-0.146932 0.03896,-0.259381 0.118014,-0.511127 0.231145,-0.747643 0.07193,-0.138907 0.08684,-0.175017 0.171323,-0.308224 0.124423,-0.196183 0.271354,-0.376962 0.425013,-0.550741 0.03682,-0.03895 0.07269,-0.07883 0.110461,-0.116861 0.168307,-0.169455 0.354465,-0.321305 0.549997,-0.458086 0.193988,-0.132006 0.392658,-0.255998 0.595919,-0.373266 0.160536,-0.09646 0.324088,-0.190077 0.50328,-0.247825 0.07683,-0.02394 0.154416,-0.04728 0.233555,-0.06222 0,0 -0.815461,-0.559109 -0.815461,-0.559109 z" />
    <path
       style="fill:#ff6600;stroke-width:0.264583"
       id="path7206"
       d="m 43.817725,62.71474 c -0.124209,-0.133602 -0.240821,-0.274175 -0.369451,-0.403744 -0.111215,-0.112027 -0.161677,-0.153686 -0.280141,-0.259241 -0.144484,-0.124188 -0.296426,-0.241343 -0.462217,-0.336079 -0.301132,-0.172069 -0.601866,-0.345017 -0.907412,-0.509125 -0.08328,-0.04473 -0.268523,-0.104529 -0.35678,-0.134943 -0.255767,-0.08032 -0.52065,-0.130365 -0.7889,-0.139411 -0.171993,-0.0058 -0.24479,0.003 -0.416036,0.014 -0.245438,0.02461 -0.492012,0.06414 -0.724829,0.148564 -0.04961,0.01799 -0.09752,0.04039 -0.146277,0.06058 0,0 0.737965,0.492421 0.737965,0.492421 v 0 c 0.04538,-0.0195 0.09,-0.04089 0.136149,-0.05848 0.220006,-0.08389 0.452864,-0.126349 0.686623,-0.147921 0.181319,-0.0087 0.226436,-0.01593 0.408866,-0.0043 0.267327,0.01712 0.529854,0.07615 0.782905,0.162732 0.06021,0.02273 0.121065,0.0438 0.180615,0.0682 0.05792,0.02373 0.22384,0.110723 0.171656,0.07615 -0.184063,-0.121939 -0.379666,-0.225497 -0.568865,-0.339299 -0.05377,-0.03235 0.109548,0.06136 0.162574,0.09492 0.147502,0.09335 0.171492,0.118766 0.307459,0.227679 0.204909,0.180174 0.414186,0.366128 0.551137,0.605825 0,0 0.894959,0.381423 0.894959,0.381423 z" />
    <path
       style="fill:#ff6600;stroke-width:0.264583"
       id="path7208"
       d="m 42.544177,62.059113 c 0.04659,0.08256 0.09038,0.166642 0.136832,0.249293 0.07993,0.139811 0.159165,0.280014 0.236114,0.421489 0.06471,0.121788 0.122949,0.247285 0.167777,0.377846 0.02864,0.08341 0.03451,0.111411 0.05708,0.19621 0.04588,0.174924 0.05925,0.354788 0.05961,0.534863 -0.0016,0.156197 -0.02747,0.310414 -0.05615,0.463497 -0.02901,0.142089 -0.06285,0.283123 -0.0936,0.424836 -0.01357,0.06624 -0.02965,0.131932 -0.04361,0.198078 -0.0011,0.006 -0.0024,0.01209 -0.0034,0.01812 0,0 0.870982,0.461782 0.870982,0.461782 v 0 c 0.0011,-0.0066 0.0019,-0.01326 0.0028,-0.01987 0.0066,-0.06978 0.0098,-0.139866 0.01855,-0.209452 0.01757,-0.144812 0.04407,-0.288327 0.07717,-0.4304 0.03344,-0.158361 0.06298,-0.317736 0.06439,-0.480261 -2.65e-4,-0.189349 -0.02048,-0.377841 -0.06313,-0.562586 -0.05076,-0.20374 -0.115244,-0.403956 -0.212121,-0.59104 -0.06718,-0.137821 -0.137512,-0.274058 -0.20677,-0.41084 -0.04032,-0.07575 -0.08528,-0.150002 -0.113641,-0.231341 0,0 -0.898869,-0.410226 -0.898869,-0.410226 z" />
    <path
       style="fill:#ff6600;stroke-width:0.264583"
       id="path7210"
       d="m 39.226315,66.478057 c 0.0073,-0.0098 0.01423,-0.01995 0.02191,-0.02951 0.04662,-0.05812 0.09859,-0.111871 0.14668,-0.168765 0.04891,-0.05786 0.09226,-0.112225 0.139994,-0.171296 0.186227,-0.233222 0.369527,-0.468773 0.55659,-0.701326 0.241004,-0.299728 0.481926,-0.59953 0.724625,-0.897887 0.252315,-0.311645 0.506297,-0.621935 0.758333,-0.933799 0.220581,-0.27268 0.447112,-0.540322 0.676886,-0.80526 0.185129,-0.216471 0.375555,-0.428307 0.566801,-0.639365 0.109459,-0.119126 0.219605,-0.237673 0.331862,-0.354174 0.03379,-0.03459 0.06711,-0.06974 0.103151,-0.102026 0.0049,-0.0063 0.0095,-0.01304 0.01545,-0.01844 0,0 -0.857263,-0.509275 -0.857263,-0.509275 v 0 c -0.0033,0.0051 -0.0074,0.01056 -0.0089,0.01651 -0.02511,0.03989 -0.05031,0.07976 -0.0778,0.118078 -0.09138,0.129546 -0.186846,0.256159 -0.285803,0.380013 -0.178152,0.220134 -0.362352,0.435309 -0.540305,0.655619 -0.225153,0.269066 -0.445577,0.541891 -0.663229,0.817073 -0.24512,0.315892 -0.491495,0.630762 -0.746746,0.938599 -0.248426,0.29519 -0.496054,0.591029 -0.746022,0.884912 -0.194966,0.227852 -0.39002,0.455809 -0.591302,0.678109 -0.110445,0.118427 -0.223194,0.237728 -0.363177,0.321897 0,0 0.838258,0.520343 0.838258,0.520343 z" />
    <rect
       style="fill:#000000;stroke-width:0.167783"
       id="rect6913-5-6"
       width="6.3414078"
       height="6.3414078"
       x="35.391991"
       y="71.118217" />
    <rect
       style="fill:#ffffff;stroke-width:0.159793"
       id="rect6913-2"
       width="6.0394359"
       height="6.0394359"
       x="35.544956"
       y="71.234421" />
    <path
       style="fill:#ff6600;stroke-width:0.264583"
       id="path7265"
       d="m 37.445997,75.48147 c -2.64e-4,-0.0181 -0.0016,-0.03618 -7.94e-4,-0.05426 0.0071,-0.189717 0.05812,-0.386088 0.101881,-0.569875 0.0843,-0.333942 0.218326,-0.654873 0.399447,-0.948074 0.04298,-0.06958 0.09065,-0.136144 0.135982,-0.204216 0.228672,-0.312976 0.51158,-0.582438 0.83144,-0.800939 0.05396,-0.03686 0.110162,-0.07033 0.165246,-0.105497 0.175262,-0.103688 0.358452,-0.194286 0.549836,-0.264216 0.07976,-0.02914 0.102483,-0.03444 0.179985,-0.05689 0.04905,-0.01283 0.09862,-0.0245 0.149111,-0.03003 0.0084,-7.94e-4 0.01693,-0.0013 0.02537,-0.0019 0.0057,-5.29e-4 0.01183,0.0011 0.01707,-0.0011 0.0063,-0.0027 0.01064,-0.0087 0.01595,-0.01304 -0.274185,-0.190702 -0.544836,-0.386588 -0.822555,-0.572106 -0.0072,-0.0048 -0.01691,0.0047 -0.02559,0.0055 -0.01532,0.0013 -0.03074,0.0013 -0.04612,0.0013 -0.09693,-5.29e-4 -0.193741,-0.0084 -0.290367,-0.01505 -0.294761,-0.02312 -0.587131,-0.06659 -0.878099,-0.118058 -0.171468,-0.03071 -0.340646,-0.07256 -0.507487,-0.122391 -0.01093,-0.0034 -0.02222,-0.0057 -0.03278,-0.01016 -0.0064,-0.0026 -0.01172,-0.0072 -0.01757,-0.01087 0.271626,0.194342 0.537882,0.396417 0.814879,0.583025 0.01214,0.0082 0.02912,-0.0031 0.04369,-0.0046 0.102169,-0.01037 0.0622,-0.0066 0.180475,-0.015 0.281361,-0.01725 0.56324,-0.02307 0.844931,-0.03246 0.165007,-0.0041 0.330779,-0.01397 0.495374,0.0028 0.01386,0.0026 0.05026,0.007 0.06345,0.01789 0.0072,0.006 0.0231,0.02831 0.01497,0.02371 -0.271578,-0.153606 -0.535461,-0.320646 -0.808124,-0.472315 -0.01421,-0.0079 0.02238,0.02429 0.02921,0.03905 0.01111,0.0241 0.0159,0.05063 0.02387,0.07595 0.0057,0.03531 0.01294,0.07041 0.01704,0.105942 0.02871,0.248764 0.01048,0.501518 -0.0076,0.750234 -0.02024,0.240721 -0.05658,0.47988 -0.113898,0.71455 -0.02498,0.08824 -0.01228,0.04662 -0.03764,0.12501 0,0 0.834593,0.448189 0.834593,0.448189 v 0 c 0.0113,-0.08871 0.0055,-0.04198 0.01733,-0.140203 0.02861,-0.249756 0.04832,-0.500214 0.06341,-0.75115 0.02162,-0.28008 0.04486,-0.560067 0.06245,-0.840435 0.0011,-0.02657 0.0029,-0.05312 0.0034,-0.07971 2.64e-4,-0.02027 0.01582,-0.04926 -7.94e-4,-0.0608 -0.549153,-0.380201 -0.549942,-0.550254 -0.938898,-0.522118 -0.146616,0.01326 -0.292465,0.03399 -0.439279,0.0453 -0.283713,0.02133 -0.56841,0.03349 -0.852898,0.02122 -0.263776,-0.01413 0.0038,0.0013 -0.221454,-0.01431 -0.0227,-0.0016 -0.08557,-0.01844 -0.06818,-0.0038 1.654238,1.395762 0.415692,0.534096 0.796694,0.589468 0.148789,0.02283 0.297305,0.04749 0.446482,0.06775 0.29478,0.04099 0.590193,0.07724 0.885023,0.117891 0.0849,0.0123 0.166421,0.02365 0.250889,0.03752 0.01931,0.0032 0.124891,0.02111 0.153879,0.02887 0.01169,0.0031 0.02262,0.0086 0.03392,0.01294 -0.267986,-0.189299 -0.535969,-0.378598 -0.803955,-0.567894 0.0028,-0.0027 0.01082,-0.0053 0.0083,-0.0082 -0.0026,-0.003 -0.0069,0.004 -0.01042,0.0058 -0.0066,0.0034 -0.01339,0.0065 -0.02008,0.0097 -0.04037,0.01955 -0.0806,0.03939 -0.12042,0.06004 -0.226679,0.11756 -0.449141,0.243798 -0.657035,0.392676 -0.05228,0.0388 -0.105674,0.07615 -0.156842,0.116401 -0.30784,0.242181 -0.581938,0.525132 -0.816168,0.83896 -0.04866,0.06813 -0.09942,0.134815 -0.145981,0.204401 -0.194001,0.289957 -0.352872,0.603237 -0.476573,0.92919 -0.04289,0.125476 -0.08492,0.251217 -0.127027,0.376957 -0.0154,0.04599 -0.03658,0.112094 -0.05518,0.158811 -0.006,0.01513 -0.01336,0.02971 -0.02006,0.04456 0,0 0.864425,0.460128 0.864425,0.460128 z" />
    <path
       style="fill:#ff6600;stroke-width:0.264583"
       id="path7273"
       d="m 36.561532,75.73828 c -0.09869,-0.01238 -0.193688,0.01458 -0.282289,0.0573 -0.02754,0.01328 -0.05371,0.02923 -0.08057,0.04384 -0.06171,0.05082 -0.0926,0.06611 -0.13108,0.139896 -0.0513,0.09837 -0.06424,0.223033 -0.04913,0.331396 0.0057,0.04082 0.0186,0.0803 0.0279,0.120451 0.02876,0.07705 0.04218,0.131916 0.09299,0.197523 0.114247,0.147505 0.522565,0.307832 0.549449,0.318815 0.03693,0.01508 0.163079,-0.04063 0.19271,-0.05199 0.08845,-0.04959 0.162348,-0.118049 0.221787,-0.199982 0.03475,-0.0479 0.06157,-0.09189 0.06742,-0.152504 0.0029,-0.02962 -0.0042,-0.05936 -0.0062,-0.08904 -0.01138,-0.03015 -0.02022,-0.06138 -0.03413,-0.09045 -0.02675,-0.05589 -0.06541,-0.10922 -0.107165,-0.154729 -0.01995,-0.02175 -0.03917,-0.04532 -0.06414,-0.06106 -0.436866,-0.275334 -0.300537,-0.23467 -0.549174,-0.293553 -0.102243,0.0024 -0.05313,-0.0047 -0.14755,0.01918 0,0 0.387167,0.268959 0.387167,0.268959 v 0 c 0.08239,-0.01413 0.03953,-0.01201 0.128675,-0.0041 0.165304,0.0593 0.212693,0.08158 -0.246689,-0.164547 -0.0259,-0.01389 0.0468,0.03575 0.06814,0.05596 0.04407,0.04173 0.08204,0.08863 0.112353,0.141298 0.01413,0.02455 0.02421,0.05122 0.03631,0.07683 0.004,0.0245 0.01254,0.04865 0.01214,0.07347 -7.94e-4,0.05209 -0.02389,0.09591 -0.05206,0.137912 -0.05241,0.07818 -0.121359,0.138639 -0.206224,0.179424 -0.02938,0.0088 -0.05781,0.02186 -0.08814,0.02649 -0.02955,0.0045 -0.111688,-0.01947 -0.08968,7.94e-4 0.09028,0.08297 0.204695,0.13509 0.308499,0.200353 0.02661,0.01672 -0.05468,-0.03236 -0.07679,-0.05469 -0.05769,-0.05822 -0.0733,-0.113184 -0.105622,-0.186703 -0.0099,-0.03728 -0.02347,-0.07377 -0.02972,-0.111832 -0.01611,-0.0982 -0.0066,-0.210478 0.04214,-0.299169 0.03574,-0.06502 0.06466,-0.07789 0.121494,-0.121428 0.02606,-0.01278 0.05119,-0.02762 0.07817,-0.03833 0.09263,-0.03679 0.194815,-0.04747 0.289838,-0.01445 0,0 -0.390763,-0.301308 -0.390763,-0.301308 z" />
    <path
       style="fill:#ff6600;stroke-width:0.264583"
       id="path7275"
       d="m 37.666657,76.823125 c 0.0051,-0.107641 0.01,-0.215292 0.015,-0.322935 0.0052,-0.115967 0.01072,-0.23204 0.0254,-0.347252 0.0024,-0.01394 0.0053,-0.03628 0.01037,-0.05058 0.0013,-0.0036 0.0021,-0.0084 0.0056,-0.01008 5.29e-4,-2.12e-4 0.02661,0.03289 0.0094,0.02405 -0.134946,-0.06934 -0.265372,-0.147148 -0.398056,-0.220723 0.01259,0.0096 0.0259,0.01836 0.0378,0.02884 0.02902,0.02556 0.07383,0.07404 0.0984,0.101489 0.06133,0.06851 0.118258,0.140579 0.17553,0.212463 0.111815,0.140862 0.229645,0.276892 0.352925,0.407813 0.204557,0.212527 0.338653,0.255461 0.638542,0.428027 0.0077,5.29e-4 0.01564,0.0039 0.02299,0.0016 0.07391,-0.02257 0.03361,-0.168307 0.025,-0.215972 -0.03615,-0.165925 -0.06735,-0.33275 -0.09215,-0.500739 -0.0122,-0.08995 -0.02305,-0.18024 -0.02751,-0.270944 0,0 -0.438267,-0.217649 -0.438267,-0.217649 v 0 c 0.01447,0.09474 0.03157,0.189071 0.04709,0.283641 0.02911,0.166029 0.06162,0.331478 0.0875,0.498057 0.0026,0.02069 0.0057,0.04131 0.0077,0.06205 0.01288,0.131741 -0.0021,-0.0095 0.0028,0.06932 2.9e-5,5.29e-4 0.0016,6.6e-5 0.0016,-5.3e-4 -0.0031,-0.0091 -0.0087,-0.0094 -0.01754,-0.01463 0.130834,0.07617 0.261665,0.152342 0.392496,0.228513 0.01074,0.0062 -0.02175,-0.01209 -0.03225,-0.01876 -0.01318,-0.0084 -0.02609,-0.01725 -0.03875,-0.02646 -0.05293,-0.03847 -0.102508,-0.0814 -0.149513,-0.126873 -0.127691,-0.128495 -0.247783,-0.264475 -0.360762,-0.406085 -0.09143,-0.116795 -0.181912,-0.234389 -0.280123,-0.345659 -0.149309,-0.08477 -0.294878,-0.176488 -0.447923,-0.254305 -0.01439,-0.0073 -0.04063,0.02305 -0.04595,0.0315 -0.01466,0.02331 -0.01143,0.05388 -0.01492,0.07969 -0.0057,0.118264 -0.0071,0.236697 -0.01392,0.354915 -0.0064,0.102862 -0.01183,0.206899 -0.0358,0.30747 0,0 0.437456,0.230613 0.437456,0.230613 z" />
    <path
       style="fill:#ff6600;stroke-width:0.264583"
       id="path7277"
       d="m 38.878049,75.659543 c 0.0407,0.162718 0.0631,0.329221 0.08477,0.49531 0.02582,0.190603 0.03615,0.382678 0.04908,0.574426 0.005,0.04573 0.0074,0.09358 0.02529,0.136734 0.06877,0.165754 0.297741,0.20178 0.456729,0.285002 0.01162,0.0061 0.02593,-0.0038 0.03889,-0.0057 0.114194,-0.02678 0.224295,-0.06803 0.336614,-0.101545 0.08829,-0.02376 0.177887,-0.04782 0.26956,-0.05312 0.0069,7.93e-4 0.01386,0.0016 0.02082,0.0024 0,0 -0.397698,-0.287515 -0.397698,-0.287515 v 0 c -0.0073,0.0011 -0.01453,0.0021 -0.0218,0.0034 -0.08799,0.0182 -0.174434,0.04316 -0.260445,0.069 -0.06222,0.01905 -0.124222,0.03942 -0.187042,0.05643 -0.03151,0.0085 -0.07498,0.01955 -0.108119,0.02291 -0.01408,0.0013 -0.02832,5.29e-4 -0.04248,7.94e-4 -0.174734,-0.05608 -0.04375,-0.01662 0.359381,0.224599 0.0081,0.0048 -0.01728,-0.0084 -0.02371,-0.01527 -0.01669,-0.01775 -0.02752,-0.05087 -0.03334,-0.07264 -0.005,-0.01857 -0.0078,-0.03766 -0.01175,-0.05649 -0.02767,-0.193829 -0.0438,-0.389057 -0.06618,-0.583531 -0.01675,-0.159144 -0.03591,-0.318256 -0.04648,-0.477933 0,0 -0.442074,-0.21718 -0.442074,-0.21718 z" />
    <path
       style="fill:#ff6600;stroke-width:0.264583"
       id="path7279"
       d="m 39.982851,75.583946 c 0.05517,0.07699 0.118975,0.146545 0.189355,0.209719 0.172542,0.132403 0.08455,0.06766 0.492881,0.291912 0.02103,0.01154 0.08124,0.02135 0.103892,0.02318 0.05328,0.0043 0.06479,-2.65e-4 0.118279,-0.0075 0.106548,-0.02387 0.206978,-0.07224 0.290105,-0.143479 0.01447,-0.01241 0.02757,-0.02635 0.04135,-0.03954 0,0 -0.405879,-0.249481 -0.405879,-0.249481 v 0 c -0.01214,0.01207 -0.02352,0.02495 -0.03644,0.03618 -0.07734,0.06721 -0.173974,0.107283 -0.274981,0.120766 -0.06034,0.0016 -0.104818,0.0013 -0.162632,-0.01945 -0.0159,-0.0057 -0.06073,-0.02928 -0.0463,-0.0205 0.613074,0.372473 0.455475,0.27218 0.322448,0.18686 -0.06881,-0.05435 -0.13325,-0.115224 -0.17938,-0.190627 0,0 -0.452694,-0.19807 -0.452694,-0.19807 z" />
    <path
       style="fill:#ff6600;stroke-width:0.264583"
       id="path7281"
       d="m 40.517511,76.024305 c 0.05747,0.18659 0.08887,0.380116 0.120496,0.57241 0.02135,0.134628 0.03848,0.269923 0.04805,0.405908 0,0 0.428144,0.211347 0.428144,0.211347 v 0 c -0.02535,-0.139888 -0.05049,-0.279818 -0.07334,-0.42014 -0.03006,-0.185328 -0.06089,-0.370689 -0.08262,-0.557207 0,0 -0.440729,-0.212318 -0.440729,-0.212318 z" />
  </g>
  <metadata
     id="metadata9098">
    <rdf:RDF>
      <cc:License
         rdf:about="http://creativecommons.org/publicdomain/zero/1.0/">
        <cc:permits
           rdf:resource="http://creativecommons.org/ns#Reproduction" />
        <cc:permits
           rdf:resource="http://creativecommons.org/ns#Distribution" />
        <cc:permits
           rdf:resource="http://creativecommons.org/ns#DerivativeWorks" />
      </cc:License>
      <cc:Work
         rdf:about="">
        <cc:license
           rdf:resource="http://creativecommons.org/publicdomain/zero/1.0/" />
      </cc:Work>
    </rdf:RDF>
  </metadata>
</svg>
