<svg xmlns="http://www.w3.org/2000/svg" xmlns:svg="http://www.w3.org/2000/svg" id="svg8190" width="128.47" height="25" version="1.1" viewBox="0 0 33.991 6.615"><g id="layer1" transform="translate(-142.985,-220.53025)"><path id="rect4648" d="m 142.985,220.54044 h 15.29175 v 6.59579 H 142.985 Z" style="fill:#f8a210;stroke-width:.268642"/><g id="text63" aria-label="EXIT" transform="matrix(0.75036835,0,0,0.75036835,221.68501,129.94637)" style="font-size:8.46667px;stroke-width:.264583"><path style="font-family:'Roadgeek 2005 Series E';-inkscape-font-specification:'Roadgeek 2005 Series E'" id="path8940" d="m -103.41947,127.94778 v -5.67267 h 4.140205 v 1.016 h -3.107265 v 1.04987 h 1.69333 v 1.0414 h -1.69333 v 1.5494 h 3.208865 v 1.016 z"/><path style="font-family:'Roadgeek 2005 Series E';-inkscape-font-specification:'Roadgeek 2005 Series E'" id="path8942" d="m -94.656461,127.94778 -1.278467,-2.0066 -1.253067,2.0066 h -1.193801 l 1.854201,-2.98874 -1.693334,-2.68393 h 1.210734 l 1.075267,1.73567 1.075267,-1.73567 h 1.2192 l -1.6764,2.68393 1.8542,2.98874 z"/><path style="font-family:'Roadgeek 2005 Series E';-inkscape-font-specification:'Roadgeek 2005 Series E'" id="path8944" d="m -92.328133,127.94778 v -5.67267 h 1.016 v 5.67267 z"/><path style="font-family:'Roadgeek 2005 Series E';-inkscape-font-specification:'Roadgeek 2005 Series E'" id="path8946" d="m -87.730726,123.27417 v 4.67361 h -0.9906 v -4.67361 h -1.634068 v -0.99906 h 4.258735 v 0.99906 z"/></g><path id="rect7238" d="m 158.20828,220.53025 h 18.7678 v 6.61459 h -18.7678 z" style="fill:#f8a210;stroke-width:.255814"/><g id="text63-3" aria-label="ONLY" transform="matrix(0.75036835,0,0,0.75036835,214.14736,129.94637)" style="font-size:8.46667px;stroke-width:.264583"><path style="font-family:'Roadgeek 2005 Series E';-inkscape-font-specification:'Roadgeek 2005 Series E'" id="path8930" d="m -68.313806,124.98187 q 0,0.66887 -0.169333,1.2192 -0.160867,0.54187 -0.465667,0.93134 -0.3048,0.38946 -0.745067,0.6096 -0.4318,0.21166 -0.973667,0.21166 -0.626534,0 -1.083734,-0.254 -0.448733,-0.26246 -0.745067,-0.67733 -0.296333,-0.42333 -0.440267,-0.94827 -0.135466,-0.5334 -0.135466,-1.0668 0,-0.67733 0.160866,-1.2192 0.169334,-0.54186 0.482601,-0.92286 0.313266,-0.38101 0.753533,-0.58421 0.448734,-0.2032 1.007534,-0.2032 0.524933,0 0.956734,0.21167 0.4318,0.21167 0.745067,0.59267 0.313266,0.381 0.4826,0.92287 0.169333,0.5334 0.169333,1.17686 z m -1.016,0.0254 q 0,-0.89746 -0.347134,-1.40546 -0.347133,-0.508 -0.9906,-0.508 -0.643467,0 -1.007534,0.508 -0.364067,0.508 -0.364067,1.40546 0,0.9144 0.364067,1.4224 0.364067,0.508 1.007534,0.508 0.4064,0 0.6604,-0.1778 0.262467,-0.1778 0.4064,-0.4572 0.1524,-0.2794 0.211667,-0.61806 0.05927,-0.34714 0.05927,-0.67734 z"/><path style="font-family:'Roadgeek 2005 Series E';-inkscape-font-specification:'Roadgeek 2005 Series E'" id="path8932" d="m -63.301544,127.85207 -2.700868,-3.90313 v 3.90313 h -0.999067 v -5.67267 h 0.999067 l 2.599268,3.74227 v -3.74227 h 0.982133 v 5.67267 z"/><path style="font-family:'Roadgeek 2005 Series E';-inkscape-font-specification:'Roadgeek 2005 Series E'" id="path8934" d="m -60.947809,127.85207 v -5.67267 h 1.016001 v 4.80061 h 3.225801 v 0.87206 z"/><path style="font-family:'Roadgeek 2005 Series E';-inkscape-font-specification:'Roadgeek 2005 Series E'" id="path8936" d="m -52.845212,125.54067 v 2.3114 h -1.016 v -2.3114 l -2.387601,-3.36127 h 1.253067 l 1.651001,2.31141 1.634067,-2.31141 h 1.253067 z"/></g></g></svg>