<?xml version="1.0" encoding="UTF-8" standalone="no"?>
<!-- Created with Inkscape (http://www.inkscape.org/) -->

<svg
   width="16"
   height="16"
   viewBox="0 0 4.2333333 4.2333333"
   version="1.1"
   id="svg5"
   inkscape:version="1.2 (dc2aedaf03, 2022-05-15)"
   sodipodi:docname="restart.svg"
   xmlns:inkscape="http://www.inkscape.org/namespaces/inkscape"
   xmlns:sodipodi="http://sodipodi.sourceforge.net/DTD/sodipodi-0.dtd"
   xmlns="http://www.w3.org/2000/svg"
   xmlns:svg="http://www.w3.org/2000/svg">
  <sodipodi:namedview
     id="namedview7"
     pagecolor="#505050"
     bordercolor="#ffffff"
     borderopacity="1"
     inkscape:showpageshadow="0"
     inkscape:pageopacity="0"
     inkscape:pagecheckerboard="1"
     inkscape:deskcolor="#505050"
     inkscape:document-units="mm"
     showgrid="false"
     inkscape:zoom="11.338328"
     inkscape:cx="-17.374695"
     inkscape:cy="3.4837587"
     inkscape:window-width="1920"
     inkscape:window-height="995"
     inkscape:window-x="0"
     inkscape:window-y="0"
     inkscape:window-maximized="1"
     inkscape:current-layer="layer1" />
  <defs
     id="defs2" />
  <g
     inkscape:label="Layer 1"
     inkscape:groupmode="layer"
     id="layer1">
    <path
       id="path1128"
       style="fill:#000000;stroke-width:0;stroke-dasharray:none"
       d="M 2.1063314 0.00051676432 A 2.1166666 2.1166666 0 0 0 0 2.1166667 A 2.1166666 2.1166666 0 0 0 2.1166667 4.2333333 A 2.1166666 2.1166666 0 0 0 4.2333333 2.1166667 A 2.1166666 2.1166666 0 0 0 3.1905029 0.29248861 L 3.1905029 0.79013265 L 3.1284912 0.89400228 A 1.5875 1.5875 0 0 1 3.7041667 2.1166667 A 1.5875 1.5875 0 0 1 2.1166667 3.7041667 A 1.5875 1.5875 0 0 1 0.52916667 2.1166667 A 1.5875 1.5875 0 0 1 2.1063314 0.52968343 L 2.1063314 0.00051676432 z " />
    <path
       sodipodi:type="star"
       style="fill:#000000;stroke-width:0;stroke-dasharray:none"
       id="path1261"
       inkscape:flatsided="true"
       sodipodi:sides="3"
       sodipodi:cx="1.810109"
       sodipodi:cy="-0.44599852"
       sodipodi:r1="0.32768041"
       sodipodi:r2="0.1638402"
       sodipodi:arg1="0.52359878"
       sodipodi:arg2="1.5707963"
       inkscape:rounded="0"
       inkscape:randomized="0"
       d="m 2.0938886,-0.28215831 -0.5675591,-10e-9 0.2837795,-0.49152061 z"
       inkscape:transform-center-y="0.025294704"
       transform="matrix(2.3315905,-1.524415,1.524415,2.3315905,-0.20092436,4.5293105)"
       inkscape:transform-center-x="-0.20594846" />
  </g>
</svg>
